<svg viewBox="0 0 960 540" xmlns="http://www.w3.org/2000/svg">
    <rect x="0" y="0" width="960" height="540" fill="none"/>
    <path d="M 0 419 L 22.8 414.3 C 45.7 409.7 91.3 400.3 137 381.8 C 182.7 363.3 207.971 341.912 253.671 345.412 C 299.371 348.912 357.959 404.97 403.859 410.87 C 449.659 416.67 522.681 371.158 568.722 379.984 C 613.958 388.656 661.518 429.067 707.218 423.867 C 752.918 418.767 770.718 395.458 816.418 366.958 C 862.118 338.458 888.858 334.392 911.758 332.492 L 960 330.364 L 960 541 L 937.2 541 C 914.3 541 868.7 541 823 541 C 777.3 541 731.7 541 686 541 C 640.3 541 594.7 541 548.8 541 C 503 541 457 541 411.2 541 C 365.3 541 319.7 541 274 541 C 228.3 541 182.7 541 137 541 C 91.3 541 45.7 541 22.8 541 L 0 541 L 0 419 Z" fill="#9D2972cc"/>
    <path d="M 0 339 L 22.8 343.8 C 45.7 348.7 91.3 358.3 137 380 C 182.7 401.7 228.3 435.3 274 437.5 C 319.7 439.7 346.042 412.956 391.942 404.656 C 437.742 396.356 472.939 393.22 517.485 405.154 C 562.057 417.095 640.3 465.822 686 465.322 C 731.7 464.822 794.241 389.024 839.941 401.224 C 885.641 413.324 914.3 462.7 937.2 474.3 L 960 486 L 960 541 L 937.2 541 C 914.3 541 868.7 541 823 541 C 777.3 541 731.7 541 686 541 C 640.3 541 594.7 541 548.8 541 C 503 541 457 541 411.2 541 C 365.3 541 319.7 541 274 541 C 228.3 541 182.7 541 137 541 C 91.3 541 45.7 541 22.8 541 L 0 541 L 0 339 Z" fill="#C22FA7"/>
    <path d="M -191.734 452.87 L -168.679 455.07 C -145.523 457.17 -99.414 461.57 -53.203 451.87 C -6.992 442.17 39.117 418.57 85.328 404.87 C 131.539 391.17 177.649 387.57 224.062 401.87 C 270.373 416.17 316.888 448.57 363.199 460.67 C 409.612 472.87 444.433 470.182 490.644 459.682 C 536.854 449.182 558.349 432.716 605.196 432.358 C 653.399 431.989 732.784 474.57 755.94 488.67 L 960.259 410.826 L 961.388 542.693 L 755.94 539.87 C 732.784 539.87 686.675 539.87 640.464 539.87 C 594.253 539.87 548.143 539.87 501.933 539.87 C 455.722 539.87 409.612 539.87 363.199 539.87 C 316.888 539.87 270.373 539.87 224.062 539.87 C 177.649 539.87 131.539 539.87 85.328 539.87 C 39.117 539.87 -6.992 539.87 -53.203 539.87 C -99.414 539.87 -145.523 539.87 -168.679 539.87 L -191.734 539.87 L -191.734 452.87 Z" fill="#5d1c64" style=""/>
    <path d="M 1 422 L 37.745 444.129 C 60.645 448.229 87.651 453.973 131.359 456.273 C 175.067 458.573 229.3 439.7 275 443.5 C 320.7 447.3 366.3 458.7 412.2 469.7 C 458 480.7 504 491.3 549.8 483.2 C 595.7 475 641.3 448 687 435.7 C 732.7 423.3 755.722 423.044 801.422 427.044 C 847.122 431.044 878.114 459.222 904.334 466.77 L 961 445 L 961 541 L 938.2 541 C 915.3 541 869.7 541 824 541 C 778.3 541 732.7 541 687 541 C 641.3 541 595.7 541 549.8 541 C 504 541 458 541 412.2 541 C 366.3 541 320.7 541 275 541 C 229.3 541 183.7 541 138 541 C 92.3 541 46.7 541 23.8 541 L 1 541 L 1 422 Z" fill="#472D85"/>
    <path d="M 1 465 L 23.8 466.5 C 46.7 468 92.3 471 138 479 C 183.7 487 229.3 500 275 509 C 320.7 518 366.3 523 412.2 516.5 C 458 510 504 492 549.8 491.3 C 595.7 490.7 641.3 507.3 687 510.5 C 732.7 513.7 778.3 503.3 824 501.8 C 869.7 500.3 915.3 507.7 938.2 511.3 L 961 515 L 961 541 L 938.2 541 C 915.3 541 869.7 541 824 541 C 778.3 541 732.7 541 687 541 C 641.3 541 595.7 541 549.8 541 C 504 541 458 541 412.2 541 C 366.3 541 320.7 541 275 541 C 229.3 541 183.7 541 138 541 C 92.3 541 46.7 541 23.8 541 L 1 541 L 1 465 Z" fill="#7A19B6"/>
    <path d="M -193.954 -127.728 C -193.954 -127.728 -126.087 96.524 -43.271 79.12 C 24.599 64.857 170.641 -80.498 251.178 -81.443 C 350.497 -82.608 464.514 37.325 539.945 40.008 C 621.449 41.659 670.051 -118.189 769.98 -118.189 C 869.564 -118.189 938.981 119.848 1016.179 119.848 C 1093.376 119.848 1151.169 -62.618 1151.169 -62.618" fill="none" fill-rule="evenodd" stroke="#e953da" stroke-linecap="round" style="stroke-width: 101px;"/>
    <path d="M -0.581 70.689 L 13.919 82.189 C 28.419 93.689 57.419 116.689 86.619 121.189 C 115.719 125.689 145.119 111.689 174.219 101.689 C 203.419 91.689 232.419 85.689 261.419 79.489 C 290.419 73.389 319.419 66.989 348.419 78.189 C 377.419 89.389 415.825 103.947 447.323 109.381 C 480.925 115.178 543.636 119.782 572.736 116.582 C 601.936 113.382 660.647 95.376 689.647 87.976 C 718.647 80.676 755.419 79.389 784.619 79.489 C 813.719 79.689 843.119 87.689 872.219 96.689 C 901.419 105.689 930.419 115.689 944.919 120.689 L 959.419 125.689 L 959.419 0.689 L 944.919 0.689 C 930.419 0.689 901.419 0.689 872.219 0.689 C 843.119 0.689 813.719 0.689 784.619 0.689 C 755.419 0.689 726.419 0.689 697.419 0.689 C 668.419 0.689 639.419 0.689 610.419 0.689 C 581.419 0.689 552.419 0.689 523.219 0.689 C 494.119 0.689 464.719 0.689 435.619 0.689 C 406.419 0.689 377.419 0.689 348.419 0.689 C 319.419 0.689 290.419 0.689 261.419 0.689 C 232.419 0.689 203.419 0.689 174.219 0.689 C 145.119 0.689 115.719 0.689 86.619 0.689 C 57.419 0.689 28.419 0.689 13.919 0.689 L -0.581 0.689 L -0.581 70.689 Z" fill="#7a19b6"/>
    <path d="M -0.581 87.689 L 13.919 85.989 C 28.724 85.303 60.075 83.646 87.947 75.361 C 116.144 66.98 141.799 64.333 170.899 70.733 C 200.099 77.033 232.419 97.689 261.419 97.389 C 290.419 96.989 319.419 78.389 348.419 69.189 C 377.419 59.989 406.419 60.389 435.619 58.189 C 464.719 55.989 494.119 51.389 523.219 60.889 C 552.419 70.389 581.419 93.989 610.419 93.489 C 639.419 92.989 668.419 68.389 697.419 66.989 C 726.419 65.689 772.654 95.708 803.066 95.525 C 832.594 95.348 850.743 83.467 879.568 79.399 C 911.469 74.897 930.419 107.989 944.919 111.389 L 959.419 114.689 L 959.419 0.689 L 944.919 0.689 C 930.419 0.689 901.419 0.689 872.219 0.689 C 843.119 0.689 813.719 0.689 784.619 0.689 C 755.419 0.689 726.419 0.689 697.419 0.689 C 668.419 0.689 639.419 0.689 610.419 0.689 C 581.419 0.689 552.419 0.689 523.219 0.689 C 494.119 0.689 464.719 0.689 435.619 0.689 C 406.419 0.689 377.419 0.689 348.419 0.689 C 319.419 0.689 290.419 0.689 261.419 0.689 C 232.419 0.689 203.419 0.689 174.219 0.689 C 145.119 0.689 115.719 0.689 86.619 0.689 C 57.419 0.689 28.419 0.689 13.919 0.689 L -0.581 0.689 L -0.581 87.689 Z" fill="#a725c3"/>
    <path d="M -0.581 80.689 L 13.919 77.689 C 28.419 74.689 57.419 68.689 86.619 59.889 C 115.719 50.989 145.119 39.389 174.219 35.489 C 203.419 31.689 232.419 35.689 261.419 43.989 C 290.419 52.389 319.419 64.989 348.419 72.389 C 377.419 79.689 406.419 81.689 435.619 78.389 C 464.719 74.989 494.119 66.389 523.219 56.989 C 552.419 47.689 581.419 37.689 610.419 39.389 C 639.419 40.989 668.419 54.389 697.419 56.489 C 726.419 58.689 755.419 49.689 784.619 43.689 C 813.719 37.689 843.119 34.689 872.219 34.989 C 901.419 35.389 930.419 38.989 944.919 40.889 L 959.419 42.689 L 959.419 0.689 L 944.919 0.689 C 930.419 0.689 901.419 0.689 872.219 0.689 C 843.119 0.689 813.719 0.689 784.619 0.689 C 755.419 0.689 726.419 0.689 697.419 0.689 C 668.419 0.689 639.419 0.689 610.419 0.689 C 581.419 0.689 552.419 0.689 523.219 0.689 C 494.119 0.689 464.719 0.689 435.619 0.689 C 406.419 0.689 377.419 0.689 348.419 0.689 C 319.419 0.689 290.419 0.689 261.419 0.689 C 232.419 0.689 203.419 0.689 174.219 0.689 C 145.119 0.689 115.719 0.689 86.619 0.689 C 57.419 0.689 28.419 0.689 13.919 0.689 L -0.581 0.689 L -0.581 80.689 Z" fill="#d135cf"/>
    <path d="M -0.581 42.689 L 13.919 37.889 C 28.419 32.989 57.419 23.389 86.619 24.489 C 115.719 25.689 145.119 37.689 174.219 43.689 C 203.419 49.689 232.419 49.689 261.419 48.489 C 290.419 47.389 319.419 44.989 348.419 39.689 C 377.419 34.389 406.419 25.989 435.619 20.189 C 464.719 14.389 494.119 10.989 523.219 12.689 C 552.419 14.389 581.419 20.989 610.419 27.689 C 639.419 34.389 668.419 40.989 697.419 42.889 C 726.419 44.689 755.419 41.689 784.619 36.989 C 813.719 32.389 843.119 25.989 872.219 22.489 C 901.419 18.989 930.419 18.389 944.919 17.989 L 959.419 17.689 L 959.419 0.689 L 944.919 0.689 C 930.419 0.689 901.419 0.689 872.219 0.689 C 843.119 0.689 813.719 0.689 784.619 0.689 C 755.419 0.689 726.419 0.689 697.419 0.689 C 668.419 0.689 639.419 0.689 610.419 0.689 C 581.419 0.689 552.419 0.689 523.219 0.689 C 494.119 0.689 464.719 0.689 435.619 0.689 C 406.419 0.689 377.419 0.689 348.419 0.689 C 319.419 0.689 290.419 0.689 261.419 0.689 C 232.419 0.689 203.419 0.689 174.219 0.689 C 145.119 0.689 115.719 0.689 86.619 0.689 C 57.419 0.689 28.419 0.689 13.919 0.689 L -0.581 0.689 L -0.581 42.689 Z" fill="#fa47d9"/>
    <path d="M -193.719 -117.749 C -193.719 -117.749 -126.02 95.676 -43.408 79.112 C 24.295 65.538 169.976 -72.799 250.314 -73.699 C 349.388 -74.807 463.124 39.335 538.369 41.889 C 619.671 43.46 668.153 -108.671 767.836 -108.671 C 867.174 -108.671 936.42 117.874 1013.427 117.874 C 1090.433 117.874 1148.084 -55.783 1148.084 -55.783" fill="none" fill-rule="evenodd" stroke="#e953da" stroke-linecap="round" style="stroke-width: 101px;"/>
</svg>