<?xml version="1.0" encoding="utf-8"?>
<svg viewBox="0 0 960 540" xmlns="http://www.w3.org/2000/svg">
  <rect x="0" y="0" width="960" height="540" fill="none" transform="matrix(0.9999999999999999, 0, 0, 0.9999999999999999, 0, 0)"/>
  <path d="M 0 419 L 22.8 414.3 C 45.7 409.7 91.3 400.3 137 381.8 C 182.7 363.3 207.971 341.912 253.671 345.412 C 299.371 348.912 357.959 404.97 403.859 410.87 C 449.659 416.67 503 366 548.8 376 C 594.7 386 644.253 432.388 689.953 427.188 C 735.653 422.088 758.101 390.146 803.801 361.646 C 849.501 333.146 892.842 328.416 915.742 326.516 L 960 330.364 L 960 541 L 937.2 541 C 914.3 541 868.7 541 823 541 C 777.3 541 731.7 541 686 541 C 640.3 541 594.7 541 548.8 541 C 503 541 457 541 411.2 541 C 365.3 541 319.7 541 274 541 C 228.3 541 182.7 541 137 541 C 91.3 541 45.7 541 22.8 541 L 0 541 L 0 419 Z" fill="#9D2972cc" transform="matrix(0.9999999999999999, 0, 0, 0.9999999999999999, 0, 0)"/>
  <path d="M 0 339 L 22.8 343.8 C 45.7 348.7 91.3 358.3 137 380 C 182.7 401.7 228.3 435.3 274 437.5 C 319.7 439.7 365.3 410.3 411.2 402 C 457 393.7 492.271 394.442 538.071 399.842 C 583.971 405.142 640.3 465.822 686 465.322 C 731.7 464.822 794.241 389.024 839.941 401.224 C 885.641 413.324 914.3 462.7 937.2 474.3 L 960 486 L 960 541 L 937.2 541 C 914.3 541 868.7 541 823 541 C 777.3 541 731.7 541 686 541 C 640.3 541 594.7 541 548.8 541 C 503 541 457 541 411.2 541 C 365.3 541 319.7 541 274 541 C 228.3 541 182.7 541 137 541 C 91.3 541 45.7 541 22.8 541 L 0 541 L 0 339 Z" fill="#C22FA7" transform="matrix(0.9999999999999999, 0, 0, 0.9999999999999999, 0, 0)"/>
  <path d="M -189.734 452.87 L -166.679 455.07 C -143.523 457.17 -97.414 461.57 -51.203 451.87 C -4.992 442.17 41.117 418.57 87.328 404.87 C 133.539 391.17 179.649 387.57 226.062 401.87 C 272.373 416.17 318.888 448.57 365.199 460.67 C 411.612 472.87 457.722 464.87 503.933 454.37 C 550.143 443.87 581.571 424.658 627.782 432.358 C 673.993 439.958 734.784 474.57 757.94 488.67 L 962.259 410.826 L 963.388 542.693 L 757.94 539.87 C 734.784 539.87 688.675 539.87 642.464 539.87 C 596.253 539.87 550.143 539.87 503.933 539.87 C 457.722 539.87 411.612 539.87 365.199 539.87 C 318.888 539.87 272.373 539.87 226.062 539.87 C 179.649 539.87 133.539 539.87 87.328 539.87 C 41.117 539.87 -4.992 539.87 -51.203 539.87 C -97.414 539.87 -143.523 539.87 -166.679 539.87 L -189.734 539.87 L -189.734 452.87 Z" fill="#5d1c64" style="" transform="matrix(0.9999999999999999, 0, 0, 0.9999999999999999, 0, 0)"/>
  <path d="M0 422L22.8 426.2C45.7 430.3 91.3 438.7 137 441C182.7 443.3 228.3 439.7 274 443.5C319.7 447.3 365.3 458.7 411.2 469.7C457 480.7 503 491.3 548.8 483.2C594.7 475 640.3 448 686 435.7C731.7 423.3 777.3 425.7 823 429.7C868.7 433.7 914.3 439.3 937.2 442.2L960 445L960 541L937.2 541C914.3 541 868.7 541 823 541C777.3 541 731.7 541 686 541C640.3 541 594.7 541 548.8 541C503 541 457 541 411.2 541C365.3 541 319.7 541 274 541C228.3 541 182.7 541 137 541C91.3 541 45.7 541 22.8 541L0 541Z" fill="#472D85" transform="matrix(0.9999999999999999, 0, 0, 0.9999999999999999, 0, 0)"/>
  <path d="M0 465L22.8 466.5C45.7 468 91.3 471 137 479C182.7 487 228.3 500 274 509C319.7 518 365.3 523 411.2 516.5C457 510 503 492 548.8 491.3C594.7 490.7 640.3 507.3 686 510.5C731.7 513.7 777.3 503.3 823 501.8C868.7 500.3 914.3 507.7 937.2 511.3L960 515L960 541L937.2 541C914.3 541 868.7 541 823 541C777.3 541 731.7 541 686 541C640.3 541 594.7 541 548.8 541C503 541 457 541 411.2 541C365.3 541 319.7 541 274 541C228.3 541 182.7 541 137 541C91.3 541 45.7 541 22.8 541L0 541Z" fill="#7A19B6" transform="matrix(0.9999999999999999, 0, 0, 0.9999999999999999, 0, 0)"/>
  <path d="M 0.201 135.295 L 16.201 133.295 C 32.201 131.295 64.201 127.295 96.201 117.995 C 128.201 108.595 160.201 93.995 192.201 95.095 C 224.201 96.295 260.154 109.342 292.154 117.642 C 324.154 126.042 373.659 127.901 405.659 117.601 C 437.659 107.301 471.353 81.254 503.353 78.954 C 535.353 76.654 566.792 87.714 598.792 93.314 C 630.792 99.014 717.926 125.182 750.131 123.06 C 786.649 120.654 832.201 106.595 864.201 93.495 C 896.201 80.295 928.201 75.295 944.201 72.795 L 960.201 70.295 L 960.201 0.295 L 944.201 0.295 C 928.201 0.295 896.201 0.295 864.201 0.295 C 832.201 0.295 800.201 0.295 768.201 0.295 C 736.201 0.295 704.201 0.295 672.201 0.295 C 640.201 0.295 608.201 0.295 576.201 0.295 C 544.201 0.295 512.201 0.295 480.201 0.295 C 448.201 0.295 416.201 0.295 384.201 0.295 C 352.201 0.295 320.201 0.295 288.201 0.295 C 256.201 0.295 224.201 0.295 192.201 0.295 C 160.201 0.295 128.201 0.295 96.201 0.295 C 64.201 0.295 32.201 0.295 16.201 0.295 L 0.201 0.295 L 0.201 135.295 Z" fill="#472d85" transform="matrix(0.9999999999999999, 0, 0, 0.9999999999999999, 0, 0)"/>
  <path d="M 0.201 85.295 L 16.201 85.995 C 32.201 86.595 64.201 87.995 96.201 93.495 C 128.201 98.995 160.201 108.595 192.201 113.595 C 224.201 118.595 256.201 118.995 288.201 106.995 C 320.201 94.995 352.201 70.595 384.201 57.795 C 416.201 44.995 448.201 43.595 480.201 53.295 C 512.201 62.995 544.201 83.595 576.201 91.495 C 608.201 99.295 640.201 94.295 672.201 86.795 C 704.201 79.295 736.201 69.295 768.201 68.495 C 800.201 67.595 832.201 75.995 864.201 81.595 C 896.201 87.295 928.201 90.295 944.201 91.795 L 960.201 93.295 L 960.201 0.295 L 944.201 0.295 C 928.201 0.295 896.201 0.295 864.201 0.295 C 832.201 0.295 800.201 0.295 768.201 0.295 C 736.201 0.295 704.201 0.295 672.201 0.295 C 640.201 0.295 608.201 0.295 576.201 0.295 C 544.201 0.295 512.201 0.295 480.201 0.295 C 448.201 0.295 416.201 0.295 384.201 0.295 C 352.201 0.295 320.201 0.295 288.201 0.295 C 256.201 0.295 224.201 0.295 192.201 0.295 C 160.201 0.295 128.201 0.295 96.201 0.295 C 64.201 0.295 32.201 0.295 16.201 0.295 L 0.201 0.295 L 0.201 85.295 Z" fill="#7e39a7" transform="matrix(0.9999999999999999, 0, 0, 0.9999999999999999, 0, 0)"/>
  <path d="M 0.201 65.295 L 16.201 66.495 C 32.201 67.595 64.201 69.995 96.201 66.795 C 128.201 63.595 160.201 54.995 192.201 48.795 C 224.201 42.595 256.201 38.995 288.201 37.995 C 320.201 36.995 352.201 38.595 384.201 36.795 C 416.201 34.995 448.201 29.595 480.201 28.995 C 512.201 28.295 544.201 32.295 576.201 39.595 C 608.201 46.995 640.201 57.595 672.201 56.095 C 704.201 54.595 736.201 40.995 768.201 35.995 C 800.201 30.995 832.201 34.595 864.201 35.295 C 896.201 35.995 928.201 33.595 944.201 32.495 L 960.201 31.295 L 960.201 0.295 L 944.201 0.295 C 928.201 0.295 896.201 0.295 864.201 0.295 C 832.201 0.295 800.201 0.295 768.201 0.295 C 736.201 0.295 704.201 0.295 672.201 0.295 C 640.201 0.295 608.201 0.295 576.201 0.295 C 544.201 0.295 512.201 0.295 480.201 0.295 C 448.201 0.295 416.201 0.295 384.201 0.295 C 352.201 0.295 320.201 0.295 288.201 0.295 C 256.201 0.295 224.201 0.295 192.201 0.295 C 160.201 0.295 128.201 0.295 96.201 0.295 C 64.201 0.295 32.201 0.295 16.201 0.295 L 0.201 0.295 L 0.201 65.295 Z" fill="#ba42c3" transform="matrix(0.9999999999999999, 0, 0, 0.9999999999999999, 0, 0)"/>
  <path d="M -198.378 -76.831 C -198.378 -76.831 -129.92 52.774 -45.11 52.774 C 52.243 52.774 167.009 -45.773 247.721 -46.394 C 347.256 -47.16 461.521 31.707 537.116 33.471 C 618.797 34.557 667.505 -70.558 767.65 -70.558 C 867.451 -70.558 937.019 85.973 1014.385 85.973 C 1091.75 85.973 1149.668 -34.015 1149.668 -34.015" fill="none" fill-rule="evenodd" stroke="#e953da" stroke-width="91.92" stroke-linecap="round" transform="matrix(0.9999999999999999, 0, 0, 0.9999999999999999, 0, 0)"/>
</svg>