<?xml version="1.0" encoding="utf-8"?>
<svg viewBox="0 0 960 540" xmlns="http://www.w3.org/2000/svg">
  <rect x="0" y="0" width="960" height="540" fill="none" transform="matrix(0.9999999999999999, 0, 0, 0.9999999999999999, -5.684341886080802e-14, -5.684341886080802e-14)"/>
  <path d="M 0 419 L 22.8 414.3 C 45.7 409.7 91.3 400.3 137 381.8 C 182.7 363.3 207.971 341.912 253.671 345.412 C 299.371 348.912 357.959 404.97 403.859 410.87 C 449.659 416.67 503 366 548.8 376 C 594.7 386 644.253 432.388 689.953 427.188 C 735.653 422.088 758.101 390.146 803.801 361.646 C 849.501 333.146 892.842 328.416 915.742 326.516 L 960 330.364 L 960 541 L 937.2 541 C 914.3 541 868.7 541 823 541 C 777.3 541 731.7 541 686 541 C 640.3 541 594.7 541 548.8 541 C 503 541 457 541 411.2 541 C 365.3 541 319.7 541 274 541 C 228.3 541 182.7 541 137 541 C 91.3 541 45.7 541 22.8 541 L 0 541 L 0 419 Z" fill="#9D2972cc" transform="matrix(0.9999999999999999, 0, 0, 0.9999999999999999, -5.684341886080802e-14, -5.684341886080802e-14)"/>
  <path d="M 0 339 L 22.8 343.8 C 45.7 348.7 91.3 358.3 137 380 C 182.7 401.7 228.3 435.3 274 437.5 C 319.7 439.7 365.3 410.3 411.2 402 C 457 393.7 492.271 394.442 538.071 399.842 C 583.971 405.142 640.3 465.822 686 465.322 C 731.7 464.822 794.241 389.024 839.941 401.224 C 885.641 413.324 914.3 462.7 937.2 474.3 L 960 486 L 960 541 L 937.2 541 C 914.3 541 868.7 541 823 541 C 777.3 541 731.7 541 686 541 C 640.3 541 594.7 541 548.8 541 C 503 541 457 541 411.2 541 C 365.3 541 319.7 541 274 541 C 228.3 541 182.7 541 137 541 C 91.3 541 45.7 541 22.8 541 L 0 541 L 0 339 Z" fill="#C22FA7" transform="matrix(0.9999999999999999, 0, 0, 0.9999999999999999, -5.684341886080802e-14, -5.684341886080802e-14)"/>
  <path d="M -189.734 452.87 L -166.679 455.07 C -143.523 457.17 -97.414 461.57 -51.203 451.87 C -4.992 442.17 41.117 418.57 87.328 404.87 C 133.539 391.17 179.649 387.57 226.062 401.87 C 272.373 416.17 318.888 448.57 365.199 460.67 C 411.612 472.87 457.722 464.87 503.933 454.37 C 550.143 443.87 581.571 424.658 627.782 432.358 C 673.993 439.958 734.784 474.57 757.94 488.67 L 962.259 410.826 L 963.388 542.693 L 757.94 539.87 C 734.784 539.87 688.675 539.87 642.464 539.87 C 596.253 539.87 550.143 539.87 503.933 539.87 C 457.722 539.87 411.612 539.87 365.199 539.87 C 318.888 539.87 272.373 539.87 226.062 539.87 C 179.649 539.87 133.539 539.87 87.328 539.87 C 41.117 539.87 -4.992 539.87 -51.203 539.87 C -97.414 539.87 -143.523 539.87 -166.679 539.87 L -189.734 539.87 L -189.734 452.87 Z" fill="#5d1c64" style="" transform="matrix(0.9999999999999999, 0, 0, 0.9999999999999999, -5.684341886080802e-14, -5.684341886080802e-14)"/>
  <path d="M0 422L22.8 426.2C45.7 430.3 91.3 438.7 137 441C182.7 443.3 228.3 439.7 274 443.5C319.7 447.3 365.3 458.7 411.2 469.7C457 480.7 503 491.3 548.8 483.2C594.7 475 640.3 448 686 435.7C731.7 423.3 777.3 425.7 823 429.7C868.7 433.7 914.3 439.3 937.2 442.2L960 445L960 541L937.2 541C914.3 541 868.7 541 823 541C777.3 541 731.7 541 686 541C640.3 541 594.7 541 548.8 541C503 541 457 541 411.2 541C365.3 541 319.7 541 274 541C228.3 541 182.7 541 137 541C91.3 541 45.7 541 22.8 541L0 541Z" fill="#472D85" transform="matrix(0.9999999999999999, 0, 0, 0.9999999999999999, -5.684341886080802e-14, -5.684341886080802e-14)"/>
  <path d="M0 465L22.8 466.5C45.7 468 91.3 471 137 479C182.7 487 228.3 500 274 509C319.7 518 365.3 523 411.2 516.5C457 510 503 492 548.8 491.3C594.7 490.7 640.3 507.3 686 510.5C731.7 513.7 777.3 503.3 823 501.8C868.7 500.3 914.3 507.7 937.2 511.3L960 515L960 541L937.2 541C914.3 541 868.7 541 823 541C777.3 541 731.7 541 686 541C640.3 541 594.7 541 548.8 541C503 541 457 541 411.2 541C365.3 541 319.7 541 274 541C228.3 541 182.7 541 137 541C91.3 541 45.7 541 22.8 541L0 541Z" fill="#7A19B6" transform="matrix(0.9999999999999999, 0, 0, 0.9999999999999999, -5.684341886080802e-14, -5.684341886080802e-14)"/>
  <path d="M -193.954 -127.728 C -193.954 -127.728 -126.087 96.524 -43.271 79.12 C 24.599 64.857 170.641 -80.498 251.178 -81.443 C 350.497 -82.608 464.514 37.325 539.945 40.008 C 621.449 41.659 670.051 -118.189 769.98 -118.189 C 869.564 -118.189 938.981 119.848 1016.179 119.848 C 1093.376 119.848 1151.169 -62.618 1151.169 -62.618" fill="none" fill-rule="evenodd" stroke="#e953da" stroke-linecap="round" style="stroke-width: 101px;" transform="matrix(0.9999999999999999, 0, 0, 0.9999999999999999, -5.684341886080802e-14, -5.684341886080802e-14)"/>
  <path d="M 0.091 68.813 L 14.591 80.313 C 29.091 91.813 58.091 114.813 87.291 119.313 C 116.391 123.813 145.791 109.813 174.891 99.813 C 204.091 89.813 233.091 83.813 262.091 77.613 C 291.091 71.513 320.091 65.113 349.091 76.313 C 378.091 87.513 422.104 104.854 451.304 117.854 C 480.404 130.854 521.063 133.509 553.165 129.558 C 582.32 125.97 621.851 116.171 650.123 106.35 C 677.622 96.798 684.273 97.443 711.602 84.004 C 738.35 70.851 756.091 77.513 785.291 77.613 C 814.391 77.813 843.791 85.813 872.891 94.813 C 902.091 103.813 931.091 113.813 945.591 118.813 L 960.091 123.813 L 960.091 -1.187 L 945.591 -1.187 C 931.091 -1.187 902.091 -1.187 872.891 -1.187 C 843.791 -1.187 814.391 -1.187 785.291 -1.187 C 756.091 -1.187 727.091 -1.187 698.091 -1.187 C 669.091 -1.187 640.091 -1.187 611.091 -1.187 C 582.091 -1.187 553.091 -1.187 523.891 -1.187 C 494.791 -1.187 465.391 -1.187 436.291 -1.187 C 407.091 -1.187 378.091 -1.187 349.091 -1.187 C 320.091 -1.187 291.091 -1.187 262.091 -1.187 C 233.091 -1.187 204.091 -1.187 174.891 -1.187 C 145.791 -1.187 116.391 -1.187 87.291 -1.187 C 58.091 -1.187 29.091 -1.187 14.591 -1.187 L 0.091 -1.187 L 0.091 68.813 Z" fill="#9d2972" transform="matrix(0.9999999999999999, 0, 0, 0.9999999999999999, -5.684341886080802e-14, -5.684341886080802e-14)"/>
  <path d="M 0.091 85.813 L 14.591 84.113 C 29.091 82.513 58.091 79.113 87.291 74.813 C 116.391 70.513 145.791 65.113 174.891 71.513 C 204.091 77.813 233.091 95.813 262.091 95.513 C 291.091 95.113 320.091 76.513 349.091 67.313 C 378.091 58.113 407.091 58.513 436.291 56.313 C 465.391 54.113 494.791 49.513 523.891 59.013 C 553.091 68.513 582.091 92.113 611.091 91.613 C 640.091 91.113 669.091 66.513 698.091 65.113 C 727.091 63.813 756.091 85.813 785.291 94.313 C 814.391 102.813 843.791 97.813 872.891 98.613 C 902.091 99.513 931.091 106.113 945.591 109.513 L 960.091 112.813 L 960.091 -1.187 L 945.591 -1.187 C 931.091 -1.187 902.091 -1.187 872.891 -1.187 C 843.791 -1.187 814.391 -1.187 785.291 -1.187 C 756.091 -1.187 727.091 -1.187 698.091 -1.187 C 669.091 -1.187 640.091 -1.187 611.091 -1.187 C 582.091 -1.187 553.091 -1.187 523.891 -1.187 C 494.791 -1.187 465.391 -1.187 436.291 -1.187 C 407.091 -1.187 378.091 -1.187 349.091 -1.187 C 320.091 -1.187 291.091 -1.187 262.091 -1.187 C 233.091 -1.187 204.091 -1.187 174.891 -1.187 C 145.791 -1.187 116.391 -1.187 87.291 -1.187 C 58.091 -1.187 29.091 -1.187 14.591 -1.187 L 0.091 -1.187 L 0.091 85.813 Z" fill="#bc3191" transform="matrix(0.9999999999999999, 0, 0, 0.9999999999999999, -5.684341886080802e-14, -5.684341886080802e-14)"/>
  <path d="M 0.091 78.813 L 14.591 75.813 C 29.091 72.813 58.091 66.813 87.291 58.013 C 116.391 49.113 145.791 37.513 174.891 33.613 C 204.091 29.813 233.091 33.813 262.091 42.113 C 291.091 50.513 320.091 63.113 349.091 70.513 C 378.091 77.813 407.091 79.813 436.291 76.513 C 465.391 73.113 494.791 64.513 523.891 55.113 C 553.091 45.813 582.091 35.813 611.091 37.513 C 640.091 39.113 669.091 52.513 698.091 54.613 C 727.091 56.813 756.091 47.813 785.291 41.813 C 814.391 35.813 843.791 32.813 872.891 33.113 C 902.091 33.513 931.091 37.113 945.591 39.013 L 960.091 40.813 L 960.091 -1.187 L 945.591 -1.187 C 931.091 -1.187 902.091 -1.187 872.891 -1.187 C 843.791 -1.187 814.391 -1.187 785.291 -1.187 C 756.091 -1.187 727.091 -1.187 698.091 -1.187 C 669.091 -1.187 640.091 -1.187 611.091 -1.187 C 582.091 -1.187 553.091 -1.187 523.891 -1.187 C 494.791 -1.187 465.391 -1.187 436.291 -1.187 C 407.091 -1.187 378.091 -1.187 349.091 -1.187 C 320.091 -1.187 291.091 -1.187 262.091 -1.187 C 233.091 -1.187 204.091 -1.187 174.891 -1.187 C 145.791 -1.187 116.391 -1.187 87.291 -1.187 C 58.091 -1.187 29.091 -1.187 14.591 -1.187 L 0.091 -1.187 L 0.091 78.813 Z" fill="#dc3bb4" transform="matrix(0.9999999999999999, 0, 0, 0.9999999999999999, -5.684341886080802e-14, -5.684341886080802e-14)"/>
  <path d="M 0.091 40.813 L 14.591 36.013 C 29.091 31.113 58.091 21.513 87.291 22.613 C 116.391 23.813 145.791 35.813 174.891 41.813 C 204.091 47.813 233.091 47.813 262.091 46.613 C 291.091 45.513 320.091 43.113 349.091 37.813 C 378.091 32.513 407.091 24.113 436.291 18.313 C 465.391 12.513 494.791 9.113 523.891 10.813 C 553.091 12.513 582.091 19.113 611.091 25.813 C 640.091 32.513 669.091 39.113 698.091 41.013 C 727.091 42.813 756.091 39.813 785.291 35.113 C 814.391 30.513 843.791 24.113 872.891 20.613 C 902.091 17.113 931.091 16.513 945.591 16.113 L 960.091 15.813 L 960.091 -1.187 L 945.591 -1.187 C 931.091 -1.187 902.091 -1.187 872.891 -1.187 C 843.791 -1.187 814.391 -1.187 785.291 -1.187 C 756.091 -1.187 727.091 -1.187 698.091 -1.187 C 669.091 -1.187 640.091 -1.187 611.091 -1.187 C 582.091 -1.187 553.091 -1.187 523.891 -1.187 C 494.791 -1.187 465.391 -1.187 436.291 -1.187 C 407.091 -1.187 378.091 -1.187 349.091 -1.187 C 320.091 -1.187 291.091 -1.187 262.091 -1.187 C 233.091 -1.187 204.091 -1.187 174.891 -1.187 C 145.791 -1.187 116.391 -1.187 87.291 -1.187 C 58.091 -1.187 29.091 -1.187 14.591 -1.187 L 0.091 -1.187 L 0.091 40.813 Z" fill="#fa47d9" transform="matrix(0.9999999999999999, 0, 0, 0.9999999999999999, -5.684341886080802e-14, -5.684341886080802e-14)"/>
  <path d="M -189.279 -123.013 C -189.279 -123.013 -121.412 101.239 -38.596 83.835 C 29.274 69.572 175.316 -75.783 255.853 -76.728 C 355.172 -77.893 469.189 42.04 544.62 44.723 C 626.124 46.374 674.726 -113.474 774.655 -113.474 C 874.239 -113.474 943.656 124.563 1020.854 124.563 C 1098.051 124.563 1155.844 -57.903 1155.844 -57.903" fill="none" fill-rule="evenodd" stroke="#e953da" stroke-linecap="round" style="stroke-width: 101px;" transform="matrix(0.9999999999999999, 0, 0, 0.9999999999999999, -5.684341886080802e-14, -5.684341886080802e-14)"/>
</svg>