<?xml version="1.0" encoding="utf-8"?>
<!-- Generator: Adobe Illustrator 28.3.0, SVG Export Plug-In . SVG Version: 6.00 Build 0)  -->
<svg version="1.1" id="Capa_1" xmlns="http://www.w3.org/2000/svg" xmlns:xlink="http://www.w3.org/1999/xlink" x="0px" y="0px"
	 viewBox="0 0 960 540" style="enable-background:new 0 0 960 540;" xml:space="preserve">
<style type="text/css">
	.st0{fill:none;}
	.st1{display:none;}
	.st2{display:inline;fill:none;stroke:#C62368;stroke-width:1.0661;stroke-miterlimit:10;}
	.st3{fill:#FA7268;}
	.st4{fill:none;stroke:#C22FA7;stroke-width:1.048;stroke-miterlimit:10;}
	.st5{fill:none;stroke:#9D2972;stroke-width:1.048;stroke-miterlimit:10;}
	.st6{fill:none;stroke:#5D1C64;stroke-width:1.048;stroke-miterlimit:10;}
	.st7{fill:none;stroke:#472D85;stroke-width:1.048;stroke-miterlimit:10;}
	.st8{fill:none;stroke:#7A19B6;stroke-width:1.048;stroke-miterlimit:10;}
	.st9{fill:#EF5F67;}
	.st10{fill:#E34C67;}
	.st11{fill:#D53867;}
	.st12{fill:none;stroke:#C22FA7;stroke-width:1.0379;stroke-miterlimit:10;}
	.st13{fill:none;stroke:#9D2972;stroke-width:1.0379;stroke-miterlimit:10;}
	.st14{fill:none;stroke:#5D1C64;stroke-width:1.0379;stroke-miterlimit:10;}
	.st15{fill:none;stroke:#472D85;stroke-width:1.0379;stroke-miterlimit:10;}
	.st16{fill:none;stroke:#7A19B6;stroke-width:1.0379;stroke-miterlimit:10;}
	.st17{fill:#C62368;}
</style>
<g id="visual">
</g>
<g id="Capa_5">
	<polyline class="st0" points="961.9,537.7 0,537.7 0,0 961.9,0 	"/>
</g>
<g id="Capa_2_00000158749667307336538570000001775345375479425451_">
	<g class="st1">
		<path class="st2" d="M-17.2,324.6L7.1,329c24.4,4.4,73,13.3,121.8,15.8c48.7,2.5,97.3-1.4,146.1,2.7
			c48.7,4.1,97.3,16.2,146.3,27.9c48.8,11.7,97.9,23,146.7,14.4c48.9-8.7,97.6-37.5,146.3-50.6c48.7-13.2,97.3-10.7,146.1-6.4
			S957.5,343,982,346.1l24.3,3"/>
		<path class="st2" d="M-19,342.4L5.4,346c24.6,3.5,73.5,10.8,122.2,11.5c48.8,0.8,97.2-4.8,146.1-2.4s97.8,12.8,147.2,22.8
			c49.2,10,98.6,19.6,147.1,9.3c48.6-10.4,96.2-40.9,144.4-55.7c48.2-14.9,96.9-14.1,145.7-11.5s97.6,6.8,122.1,9.1l24.4,2.1"/>
		<path class="st2" d="M-20.2,360.4l24.6,2.8c24.7,2.7,73.8,8.2,122.6,7.2s97-8.2,145.9-7.5s98.2,9.4,147.9,17.7
			c49.5,8.3,99.2,16.1,147.3,4.1c48.2-12.1,94.7-44.2,142.4-60.7c47.7-16.6,96.4-17.4,145.3-16.6c48.9,0.9,97.8,3.4,122.4,4.8
			l24.5,1.3"/>
		<path class="st2" d="M-20.7,378.3l24.6,1.9c24.7,1.8,74,5.6,122.7,3c48.7-2.7,96.7-11.6,145.5-12.6c48.9-1.1,98.5,5.9,148.4,12.5
			c49.8,6.6,99.7,12.7,147.4-1c47.8-13.8,93.1-47.5,140.2-65.7c47.1-18.2,95.7-20.8,144.6-21.6c48.9-0.9,97.9,0,122.5,0.5l24.5,0.4"
			/>
		<path class="st2" d="M-20.7,396.3l24.7,1c24.8,0.9,74.2,3,122.8-1.3c48.6-4.4,96.2-14.9,145-17.7c48.8-2.8,98.6,2.5,148.7,7.3
			c50,4.8,100.1,9.2,147.3-6.2c47.2-15.5,91.4-50.7,137.8-70.5c46.4-19.9,94.9-24.1,143.7-26.7s97.8-3.4,122.4-3.7l24.5-0.4"/>
		<path class="st2" d="M-19.9,414.2l24.7,0.2c24.8,0.1,74.2,0.4,122.6-5.6s95.6-18.3,144.3-22.7c48.7-4.5,98.7-0.9,148.9,2.1
			c50.1,3.1,100.4,5.7,147-11.3c46.7-17.1,89.6-53.9,135.3-75.3c45.7-21.5,94-27.4,142.7-31.7s97.6-6.8,122.2-8l24.5-1.3"/>
		<path class="st2" d="M-18.3,333.5l24.4,4.1c24.5,3.9,73.3,12.1,122,13.7s97.3-3.1,146.1,0.1s97.6,14.5,146.7,25.4
			c49,10.9,98.3,21.3,146.9,11.8c48.8-9.6,96.9-39.2,145.4-53.2c48.5-14.1,97.1-12.4,145.9-8.9c48.8,3.4,97.5,8.5,122,11.2l24.4,2.6
			"/>
		<path class="st2" d="M-19.8,351.4l24.5,3.2c24.6,3.1,73.6,9.5,122.4,9.4s97.1-6.5,146-5s98.1,11.1,147.5,20.2
			c49.4,9.2,98.9,17.9,147.3,6.7c48.4-11.3,95.5-42.6,143.4-58.2c48-15.8,96.6-15.7,145.5-14s97.7,5.1,122.3,6.9l24.4,1.7"/>
		<path class="st2" d="M-20.6,369.3L4,371.7c24.7,2.2,73.9,6.9,122.7,5.1s96.8-9.9,145.7-10.1s98.4,7.7,148.2,15.1
			c49.7,7.4,99.5,14.4,147.4,1.6c48-13,93.9-45.9,141.3-63.2c47.4-17.4,96-19.1,144.9-19.1c48.9,0,97.9,1.7,122.5,2.7l24.5,0.9"/>
		<path class="st2" d="M-20.9,387.3l24.7,1.5c24.8,1.4,74.1,4.3,122.8,0.8s96.4-13.2,145.3-15.2c48.9-1.9,98.6,4.2,148.6,9.9
			c49.9,5.7,99.9,10.9,147.4-3.6c47.5-14.6,92.3-49.1,139-68.1c46.7-19.1,95.3-22.4,144.2-24.1s97.9-1.7,122.5-1.6h24.5"/>
		<path class="st2" d="M-20.5,405.3l24.7,0.6c24.8,0.5,74.2,1.7,122.7-3.5s95.9-16.6,144.7-20.2s98.7,0.8,148.8,4.7
			c50.1,3.9,100.3,7.4,147.1-8.7c47-16.3,90.5-52.3,136.6-72.9c46.1-20.7,94.5-25.8,143.3-29.2c48.8-3.4,97.7-5.1,122.3-5.9
			l24.5-0.9"/>
		<path class="st2" d="M-19.4,423.2L5.3,423c24.8-0.4,74.2-0.9,122.5-7.7c48.3-6.9,95.3-19.9,143.9-25.3s98.6-2.7,148.9-0.5
			c50.2,2.2,100.5,3.9,146.8-13.9c46.4-17.9,88.6-55.5,133.9-77.6c45.3-22.3,93.5-29,142.2-34.1c48.6-5.1,97.5-8.5,122.1-10.1
			l24.4-1.7"/>
	</g>
	<rect y="0" class="st0" width="960" height="540"/>
	<path class="st3" d="M0,419l22.8-4.7c22.9-4.6,68.5-14,114.2-32.5s91.3-46.1,137-42.6s91.3,38.1,137.2,44
		C457,389,503,366,548.8,376c45.9,10,91.5,53,137.2,47.8c45.7-5.1,91.3-58.5,137-87s91.3-32.1,114.2-34L960,301v240h-22.8
		c-22.9,0-68.5,0-114.2,0s-91.3,0-137,0s-91.3,0-137.2,0c-45.8,0-91.8,0-137.6,0c-45.9,0-91.5,0-137.2,0s-91.3,0-137,0
		s-91.3,0-114.2,0H0V419z"/>
	<path class="st4" d="M0,379.7c25-3.1,71.8-9.5,119.4-24.7c49.2-15.7,99-41,146.5-33.8s92.4,47,139.9,56.8
		c47.4,9.7,97.3-10.8,144.4,3.3c47.2,14.1,91.5,62.6,139.6,60.7c48.2-1.7,100-54,150-80.2c48.8-25.5,95.5-26.4,120.2-26.5"/>
	<path class="st4" d="M0,388.2c24.9-3.6,71.7-10.7,119.1-26.8c48.9-16.6,98.3-42.7,145.9-36.3c47.6,6.4,93.2,45.4,140.9,54.3
		c47.6,8.8,97.1-12.5,144.4,0.8c47.4,13.2,92.5,61,140.7,58.3c48.1-2.6,99-55.7,148.6-82.8c48.8-26.7,96.1-28,120.5-28.7"/>
	<path class="st5" d="M0,396.6c24.8-4,71.6-11.9,118.8-28.9c48.6-17.5,97.5-44.4,145.2-38.9c47.7,5.6,94,43.7,141.8,51.8
		c47.7,8,96.9-14.2,144.4-1.8c47.6,12.4,93.6,59.3,141.7,55.8c48.1-3.4,98.1-57.4,147.1-85.3c49.1-27.9,97-29.8,121-30.8h0.4"/>
	<path class="st5" d="M0,405.1c24.6-4.4,71.5-13.2,118.7-31c48.3-18.3,96.8-46.1,144.5-41.4S358,374.7,406,382
		c47.8,7.2,96.6-15.8,144.3-4.3c47.9,11.6,94.6,57.7,142.6,53.3c48-4.3,97-59.1,145.6-87.9s96.4-31.5,120.5-32.9l1-0.1"/>
	<path class="st6" d="M0,413.6c24.4-4.8,71.5-14.4,118.7-33.2c48-19.1,95.9-47.8,143.8-43.9S358,376.9,406,383.3
		c48,6.3,96.3-17.5,144.2-6.8c48,10.7,95.6,56,143.5,50.8c47.9-5.1,96-60.8,144-90.4s95.9-33.1,119.9-35l2.3-0.2"/>
	<path class="st6" d="M0,422.1c24.1-5.1,71.4-15.6,118.8-35.4c47.7-20,95.1-49.5,143-46.4s96.2,38.8,144.3,44.3s96-19.2,144.1-9.3
		c48.2,9.9,96.6,54.4,144.4,48.3c47.8-5.9,94.9-62.5,142.4-92.9c47.5-30.5,95.3-34.8,119.2-37.1l3.7-0.3"/>
	<path class="st7" d="M0,430.7l0.4-0.1c23.8-5.5,71.3-16.8,118.6-37.6s94.2-51.1,142.2-48.9s96.8,37.1,145.1,41.8
		c48.2,4.6,95.6-20.9,143.9-11.8c48.4,9,97.5,52.7,145.2,45.8c47.7-6.8,93.8-64.1,140.8-95.4s94.6-36.5,118.6-39.2l5.2-0.6"/>
	<path class="st7" d="M0,439.4l1.4-0.4c23.7-5.9,71-18,117.9-39.7c46.9-21.6,93.3-52.8,141.3-51.4s97.5,35.4,145.8,39.3
		c48.2,3.8,95.2-22.5,143.7-14.3s98.4,51,146,43.3c47.6-7.6,92.7-65.8,139.1-97.8s94-38.1,117.9-41.2l6.9-0.9"/>
	<path class="st8" d="M0,448.1l2.5-0.7c23.6-6.4,70.7-19.3,117.2-41.7c46.5-22.4,92.4-54.4,140.4-53.8s98.1,33.7,146.5,36.7
		c48.3,3,94.8-24.2,143.4-16.8c48.7,7.4,99.3,49.2,146.7,40.7c47.4-8.4,91.5-67.4,137.4-100.3s93.3-39.7,117.1-43.3l8.7-1.3"/>
	<path class="st8" d="M0,456.9l3.8-1.1c23.5-6.8,70.3-20.5,116.5-43.8c46.1-23.2,91.4-56,139.4-56.3s98.6,31.9,147.1,34.2
		c48.3,2.1,94.4-25.9,143.1-19.3c48.8,6.5,100.1,47.5,147.4,38.1c47.3-9.3,90.3-68.9,135.6-102.6s92.6-41.4,116.4-45.3L960,259"/>
	<path class="st9" d="M0,339l22.8,4.8c22.9,4.9,68.5,14.5,114.2,36.2s91.3,55.3,137,57.5s91.3-27.2,137.2-35.5
		c45.8-8.3,91.8,4.3,137.6,9.7c45.9,5.3,91.5,3.3,137.2,2.8s91.3,0.5,137,12.7c45.7,12.1,91.3,35.5,114.2,47.1L960,486v55h-22.8
		c-22.9,0-68.5,0-114.2,0s-91.3,0-137,0s-91.3,0-137.2,0c-45.8,0-91.8,0-137.6,0c-45.9,0-91.5,0-137.2,0s-91.3,0-137,0
		s-91.3,0-114.2,0H0V339z"/>
	<path class="st10" d="M0,454l22.8,2.2c22.9,2.1,68.5,6.5,114.2-3.2s91.3-33.3,137-47s91.3-17.3,137.2-3
		c45.8,14.3,91.8,46.7,137.6,58.8c45.9,12.2,91.5,4.2,137.2-6.3s91.3-23.5,137-15.8c45.7,7.6,91.3,36,114.2,50.1L960,504v37h-22.8
		c-22.9,0-68.5,0-114.2,0s-91.3,0-137,0s-91.3,0-137.2,0c-45.8,0-91.8,0-137.6,0c-45.9,0-91.5,0-137.2,0s-91.3,0-137,0
		s-91.3,0-114.2,0H0V454z"/>
	<path class="st11" d="M0,422l22.8,4.2c22.9,4.1,68.5,12.5,114.2,14.8s91.3-1.3,137,2.5s91.3,15.2,137.2,26.2
		c45.8,11,91.8,21.6,137.6,13.5c45.9-8.2,91.5-35.2,137.2-47.5c45.7-12.4,91.3-10,137-6s91.3,9.6,114.2,12.5L960,445v96h-22.8
		c-22.9,0-68.5,0-114.2,0s-91.3,0-137,0s-91.3,0-137.2,0c-45.8,0-91.8,0-137.6,0c-45.9,0-91.5,0-137.2,0s-91.3,0-137,0
		s-91.3,0-114.2,0H0V422z"/>
	<g>
		<path class="st12" d="M0,383.7l12.2,3.3c23.3,6.2,69.8,18.8,116.9,25.1c47.1,6.3,94.5,6.5,141.5,14.3
			c46.9,7.9,93.1,23.6,139.7,38.9c46.4,15.3,93.1,30.2,141.2,25.8c48.2-4.5,97.7-28.6,146-37.4c48.3-8.9,95.3-2.5,142.2,5.5
			c46.9,8.1,93.6,17.8,117,22.7l3.4,0.7"/>
		<path class="st12" d="M10.5,395.2c23.4,5.8,70.1,17.6,117.3,23.1s94.6,4.8,141.7,11.9S363,452,409.8,466.5
			c46.7,14.5,93.6,28.6,141.6,23.3c48.1-5.4,97.1-30.3,145.3-39.9c48.2-9.7,95.2-4.2,142.3,3.1c47.1,7.2,93.9,16.1,117.4,20.7"/>
		<path class="st13" d="M9,403.4c23.5,5.4,70.4,16.4,117.7,21c47.3,4.7,94.7,3.2,141.9,9.4c47.2,6.2,93.9,20.3,140.9,34
			c46.9,13.7,94.1,26.9,142,20.8c48-6.2,96.6-32,144.6-42.4c48-10.6,95.1-5.8,142.3,0.6s94.2,14.5,117.8,18.6"/>
		<path class="st13" d="M7.6,411.7c23.6,5,70.7,15.1,118,19c47.3,3.8,94.8,1.5,142,6.9c47.3,5.4,94.2,18.6,141.5,31.5
			c47.2,12.9,94.6,25.3,142.3,18.3c47.9-7.1,96-33.6,143.8-45s95-7.5,142.3-1.9s94.4,12.8,118.1,16.6"/>
		<path class="st14" d="M6.4,420c23.7,4.6,70.9,13.9,118.3,16.9s94.8-0.1,142.1,4.4c47.4,4.6,94.5,17,142,29
			c47.4,12,95,23.6,142.6,15.9c47.7-7.9,95.4-35.3,143-47.5c47.6-12.3,94.9-9.2,142.3-4.4s94.6,11.2,118.3,14.5"/>
		<path class="st14" d="M5.3,428.3c23.8,4.1,71.2,12.7,118.6,14.8c47.4,2.2,94.8-1.8,142.2,2s94.8,15.3,142.5,26.5
			c47.6,11.2,95.4,22,142.9,13.4c47.6-8.7,94.8-37,142.2-49.9c47.4-13.1,94.7-10.8,142.2-6.9s94.8,9.5,118.6,12.4"/>
		<path class="st15" d="M4.4,436.6c23.9,3.7,71.4,11.4,118.8,12.8c47.5,1.3,94.7-3.4,142.2-0.5s95.1,13.7,143,24.1
			c47.8,10.4,95.7,20.3,143.1,10.9c47.4-9.6,94.1-38.6,141.3-52.4c47.1-13.9,94.5-12.5,142-9.4s95,7.9,118.8,10.4"/>
		<path class="st15" d="M3.6,444.9c23.9,3.3,71.6,10.2,119,10.7s94.6-5.1,142.2-3s95.3,12,143.4,21.6c47.9,9.5,96.1,18.6,143.3,8.4
			c47.3-10.4,93.5-40.2,140.3-54.9c46.9-14.7,94.3-14.1,141.8-11.8c47.6,2.3,95.1,6.2,118.9,8.3"/>
		<path class="st16" d="M3,453.2c24,2.9,71.7,8.9,119.2,8.6s94.5-6.7,142.1-5.5s95.5,10.4,143.7,19.1c48.1,8.7,96.4,17,143.4,5.9
			c47.1-11.2,92.7-41.9,139.4-57.3c46.6-15.5,94-15.7,141.6-14.3c47.6,1.4,95.2,4.6,119.1,6.2"/>
		<path class="st16" d="M0,461.3l2.5,0.3c24,2.5,71.9,7.7,119.3,6.5c47.5-1.1,94.4-8.4,142-8s95.7,8.7,144,16.5
			c48.3,7.9,96.7,15.3,143.5,3.4c46.9-12,92-43.5,138.3-59.7C736,404,783.4,402.9,831,403.5s95.2,2.9,119.2,4.1l9.9,0.5"/>
		<path class="st12" d="M0,392.5l10.5,2.7c23.4,5.8,70.1,17.6,117.3,23.1s94.6,4.8,141.7,11.9S363,452,409.8,466.5
			c46.7,14.5,93.6,28.6,141.6,23.3c48.1-5.4,97.1-30.3,145.3-39.9c48.2-9.7,95.2-4.2,142.3,3.1c47.1,7.2,93.9,16.1,117.4,20.7
			l3.6,0.7"/>
		<path class="st13" d="M0,401.3l9,2.1c23.5,5.4,70.4,16.4,117.7,21c47.3,4.7,94.7,3.2,141.9,9.4c47.2,6.2,93.9,20.3,140.9,34
			c46.9,13.7,94.1,26.9,142,20.8c48-6.2,96.6-32,144.6-42.4c48-10.6,95.1-5.8,142.3,0.6s94.2,14.5,117.8,18.6l3.8,0.7"/>
		<path class="st13" d="M0,410l7.6,1.6c23.6,5,70.7,15.1,118,19c47.3,3.8,94.8,1.5,142,6.9c47.3,5.4,94.2,18.6,141.5,31.5
			c47.2,12.9,94.6,25.3,142.3,18.3c47.9-7.1,96-33.6,143.8-45s95-7.5,142.3-1.9s94.4,12.8,118.1,16.6l4.3,0.7"/>
		<path class="st14" d="M0,418.7l6.4,1.3c23.7,4.6,70.9,13.9,118.3,16.9s94.8-0.1,142.1,4.4c47.4,4.6,94.5,17,142,29
			c47.4,12,95,23.6,142.6,15.9c47.7-7.9,95.4-35.3,143-47.5c47.6-12.3,94.9-9.2,142.3-4.4s94.6,11.2,118.3,14.5l4.8,0.7"/>
		<path class="st14" d="M0,427.3l5.3,1c23.8,4.1,71.2,12.7,118.6,14.8c47.4,2.2,94.8-1.8,142.2,2s94.8,15.3,142.5,26.5
			c47.6,11.2,95.4,22,142.9,13.4c47.6-8.7,94.8-37,142.2-49.9c47.4-13.1,94.7-10.8,142.2-6.9s94.8,9.5,118.6,12.4l5.6,0.7"/>
		<path class="st15" d="M0,435.9l4.4,0.7c23.9,3.7,71.4,11.4,118.8,12.8c47.5,1.3,94.7-3.4,142.2-0.5s95.1,13.7,143,24.1
			c47.8,10.4,95.7,20.3,143.1,10.9c47.4-9.6,94.1-38.6,141.3-52.4c47.1-13.9,94.5-12.5,142-9.4s95,7.9,118.8,10.4l6.4,0.6"/>
		<path class="st15" d="M0,444.4l3.6,0.5c23.9,3.3,71.6,10.2,119,10.7s94.6-5.1,142.2-3s95.3,12,143.4,21.6
			c47.9,9.5,96.1,18.6,143.3,8.4c47.3-10.4,93.5-40.2,140.3-54.9c46.9-14.7,94.3-14.1,141.8-11.8c47.6,2.3,95.1,6.2,118.9,8.3
			l7.4,0.6"/>
		<path class="st16" d="M0,452.9l3,0.4c24,2.9,71.7,8.9,119.2,8.6s94.5-6.7,142.1-5.5s95.5,10.4,143.7,19.1
			c48.1,8.7,96.4,17,143.4,5.9c47.1-11.2,92.7-41.9,139.4-57.3c46.6-15.5,94-15.7,141.6-14.3c47.6,1.4,95.2,4.6,119.1,6.2l8.6,0.6"
			/>
	</g>
	<path class="st17" d="M0,465l22.8,1.5C45.7,468,91.3,471,137,479s91.3,21,137,30s91.3,14,137.2,7.5C457,510,503,492,548.8,491.3
		c45.9-0.6,91.5,16,137.2,19.2s91.3-7.2,137-8.7s91.3,5.9,114.2,9.5L960,515v26h-22.8c-22.9,0-68.5,0-114.2,0s-91.3,0-137,0
		s-91.3,0-137.2,0c-45.8,0-91.8,0-137.6,0c-45.9,0-91.5,0-137.2,0s-91.3,0-137,0s-91.3,0-114.2,0H0V465z"/>
</g>
</svg>
