<?xml version="1.0" encoding="utf-8"?>
<svg viewBox="0 0 960 540" xmlns="http://www.w3.org/2000/svg">
  <rect x="0" y="0" width="960" height="540" fill="none" transform="matrix(1, 0, 0, 1, -5.684341886080802e-14, 0)"/>
  <path d="M 0 419 L 22.8 414.3 C 45.7 409.7 91.3 400.3 137 381.8 C 182.7 363.3 207.971 341.912 253.671 345.412 C 299.371 348.912 357.959 404.97 403.859 410.87 C 449.659 416.67 503 366 548.8 376 C 594.7 386 644.253 432.388 689.953 427.188 C 735.653 422.088 758.101 390.146 803.801 361.646 C 849.501 333.146 892.842 328.416 915.742 326.516 L 960 330.364 L 960 541 L 937.2 541 C 914.3 541 868.7 541 823 541 C 777.3 541 731.7 541 686 541 C 640.3 541 594.7 541 548.8 541 C 503 541 457 541 411.2 541 C 365.3 541 319.7 541 274 541 C 228.3 541 182.7 541 137 541 C 91.3 541 45.7 541 22.8 541 L 0 541 L 0 419 Z" fill="#9D2972cc" transform="matrix(1, 0, 0, 1, -5.684341886080802e-14, 0)"/>
  <path d="M 0 339 L 22.8 343.8 C 45.7 348.7 91.3 358.3 137 380 C 182.7 401.7 228.3 435.3 274 437.5 C 319.7 439.7 365.3 410.3 411.2 402 C 457 393.7 492.271 394.442 538.071 399.842 C 583.971 405.142 640.3 465.822 686 465.322 C 731.7 464.822 794.241 389.024 839.941 401.224 C 885.641 413.324 914.3 462.7 937.2 474.3 L 960 486 L 960 541 L 937.2 541 C 914.3 541 868.7 541 823 541 C 777.3 541 731.7 541 686 541 C 640.3 541 594.7 541 548.8 541 C 503 541 457 541 411.2 541 C 365.3 541 319.7 541 274 541 C 228.3 541 182.7 541 137 541 C 91.3 541 45.7 541 22.8 541 L 0 541 L 0 339 Z" fill="#C22FA7" transform="matrix(1, 0, 0, 1, -5.684341886080802e-14, 0)"/>
  <path d="M -189.734 452.87 L -166.679 455.07 C -143.523 457.17 -97.414 461.57 -51.203 451.87 C -4.992 442.17 41.117 418.57 87.328 404.87 C 133.539 391.17 179.649 387.57 226.062 401.87 C 272.373 416.17 318.888 448.57 365.199 460.67 C 411.612 472.87 457.722 464.87 503.933 454.37 C 550.143 443.87 581.571 424.658 627.782 432.358 C 673.993 439.958 734.784 474.57 757.94 488.67 L 962.259 410.826 L 963.388 542.693 L 757.94 539.87 C 734.784 539.87 688.675 539.87 642.464 539.87 C 596.253 539.87 550.143 539.87 503.933 539.87 C 457.722 539.87 411.612 539.87 365.199 539.87 C 318.888 539.87 272.373 539.87 226.062 539.87 C 179.649 539.87 133.539 539.87 87.328 539.87 C 41.117 539.87 -4.992 539.87 -51.203 539.87 C -97.414 539.87 -143.523 539.87 -166.679 539.87 L -189.734 539.87 L -189.734 452.87 Z" fill="#5d1c64" style="" transform="matrix(1, 0, 0, 1, -5.684341886080802e-14, 0)"/>
  <path d="M0 422L22.8 426.2C45.7 430.3 91.3 438.7 137 441C182.7 443.3 228.3 439.7 274 443.5C319.7 447.3 365.3 458.7 411.2 469.7C457 480.7 503 491.3 548.8 483.2C594.7 475 640.3 448 686 435.7C731.7 423.3 777.3 425.7 823 429.7C868.7 433.7 914.3 439.3 937.2 442.2L960 445L960 541L937.2 541C914.3 541 868.7 541 823 541C777.3 541 731.7 541 686 541C640.3 541 594.7 541 548.8 541C503 541 457 541 411.2 541C365.3 541 319.7 541 274 541C228.3 541 182.7 541 137 541C91.3 541 45.7 541 22.8 541L0 541Z" fill="#472D85" transform="matrix(1, 0, 0, 1, -5.684341886080802e-14, 0)"/>
  <path d="M0 465L22.8 466.5C45.7 468 91.3 471 137 479C182.7 487 228.3 500 274 509C319.7 518 365.3 523 411.2 516.5C457 510 503 492 548.8 491.3C594.7 490.7 640.3 507.3 686 510.5C731.7 513.7 777.3 503.3 823 501.8C868.7 500.3 914.3 507.7 937.2 511.3L960 515L960 541L937.2 541C914.3 541 868.7 541 823 541C777.3 541 731.7 541 686 541C640.3 541 594.7 541 548.8 541C503 541 457 541 411.2 541C365.3 541 319.7 541 274 541C228.3 541 182.7 541 137 541C91.3 541 45.7 541 22.8 541L0 541Z" fill="#7A19B6" transform="matrix(1, 0, 0, 1, -5.684341886080802e-14, 0)"/>
  <path d="M -193.954 -127.728 C -193.954 -127.728 -126.087 96.524 -43.271 79.12 C 24.599 64.857 170.641 -80.498 251.178 -81.443 C 350.497 -82.608 464.514 37.325 539.945 40.008 C 621.449 41.659 670.051 -118.189 769.98 -118.189 C 869.564 -118.189 938.981 119.848 1016.179 119.848 C 1093.376 119.848 1151.169 -62.618 1151.169 -62.618" fill="none" fill-rule="evenodd" stroke="#e953da" stroke-linecap="round" style="stroke-width: 101px;" transform="matrix(1, 0, 0, 1, -5.684341886080802e-14, 0)"/>
  <path d="M -1.481 70.689 L 13.019 82.189 C 27.519 93.689 56.519 116.689 85.719 121.189 C 114.819 125.689 144.219 111.689 173.319 101.689 C 202.519 91.689 231.519 85.689 260.519 79.489 C 289.519 73.389 343.728 78.693 372.728 89.893 C 401.728 101.093 438.455 116.795 469.832 122.886 C 504.334 129.584 560.214 124.014 588.943 118.382 C 619.043 112.481 666.051 92.674 695.051 85.274 C 724.051 77.974 754.519 79.389 783.719 79.489 C 812.819 79.689 842.219 87.689 871.319 96.689 C 900.519 105.689 929.519 115.689 944.019 120.689 L 958.519 125.689 L 958.519 0.689 L 944.019 0.689 C 929.519 0.689 900.519 0.689 871.319 0.689 C 842.219 0.689 812.819 0.689 783.719 0.689 C 754.519 0.689 725.519 0.689 696.519 0.689 C 667.519 0.689 638.519 0.689 609.519 0.689 C 580.519 0.689 551.519 0.689 522.319 0.689 C 493.219 0.689 463.819 0.689 434.719 0.689 C 405.519 0.689 376.519 0.689 347.519 0.689 C 318.519 0.689 289.519 0.689 260.519 0.689 C 231.519 0.689 202.519 0.689 173.319 0.689 C 144.219 0.689 114.819 0.689 85.719 0.689 C 56.519 0.689 27.519 0.689 13.019 0.689 L -1.481 0.689 L -1.481 70.689 Z" fill="#fa47d9" transform="matrix(1, 0, 0, 1, -5.684341886080802e-14, 0)"/>
  <path d="M -1.481 87.689 L 13.019 85.989 C 27.519 84.389 56.519 80.989 85.719 76.689 C 114.819 72.389 144.219 66.989 173.319 73.389 C 202.519 79.689 231.519 97.689 260.519 97.389 C 289.519 96.989 318.519 78.389 347.519 69.189 C 376.519 59.989 405.519 60.389 434.719 58.189 C 463.819 55.989 493.219 51.389 522.319 60.889 C 551.519 70.389 580.519 93.989 609.519 93.489 C 638.519 92.989 667.519 68.389 696.519 66.989 C 725.519 65.689 760.821 81.387 790.021 89.887 C 819.121 98.387 857.524 83.483 886.624 84.283 C 915.824 85.183 929.519 107.989 944.019 111.389 L 958.519 114.689 L 958.519 0.689 L 944.019 0.689 C 929.519 0.689 900.519 0.689 871.319 0.689 C 842.219 0.689 812.819 0.689 783.719 0.689 C 754.519 0.689 725.519 0.689 696.519 0.689 C 667.519 0.689 638.519 0.689 609.519 0.689 C 580.519 0.689 551.519 0.689 522.319 0.689 C 493.219 0.689 463.819 0.689 434.719 0.689 C 405.519 0.689 376.519 0.689 347.519 0.689 C 318.519 0.689 289.519 0.689 260.519 0.689 C 231.519 0.689 202.519 0.689 173.319 0.689 C 144.219 0.689 114.819 0.689 85.719 0.689 C 56.519 0.689 27.519 0.689 13.019 0.689 L -1.481 0.689 L -1.481 87.689 Z" fill="#d135cf" transform="matrix(1, 0, 0, 1, -5.684341886080802e-14, 0)"/>
  <path d="M -1.481 80.689 L 13.019 77.689 C 27.519 74.689 56.519 68.689 85.719 59.889 C 114.819 50.989 144.219 39.389 173.319 35.489 C 202.519 31.689 231.519 35.689 260.519 43.989 C 289.519 52.389 318.519 64.989 347.519 72.389 C 376.519 79.689 405.519 81.689 434.719 78.389 C 463.819 74.989 493.219 66.389 522.319 56.989 C 551.519 47.689 580.519 37.689 609.519 39.389 C 638.519 40.989 667.519 54.389 696.519 56.489 C 725.519 58.689 754.519 49.689 783.719 43.689 C 812.819 37.689 842.219 34.689 871.319 34.989 C 900.519 35.389 929.519 38.989 944.019 40.889 L 958.519 42.689 L 958.519 0.689 L 944.019 0.689 C 929.519 0.689 900.519 0.689 871.319 0.689 C 842.219 0.689 812.819 0.689 783.719 0.689 C 754.519 0.689 725.519 0.689 696.519 0.689 C 667.519 0.689 638.519 0.689 609.519 0.689 C 580.519 0.689 551.519 0.689 522.319 0.689 C 493.219 0.689 463.819 0.689 434.719 0.689 C 405.519 0.689 376.519 0.689 347.519 0.689 C 318.519 0.689 289.519 0.689 260.519 0.689 C 231.519 0.689 202.519 0.689 173.319 0.689 C 144.219 0.689 114.819 0.689 85.719 0.689 C 56.519 0.689 27.519 0.689 13.019 0.689 L -1.481 0.689 L -1.481 80.689 Z" fill="#a725c3" transform="matrix(1, 0, 0, 1, -5.684341886080802e-14, 0)"/>
  <path d="M -1.481 42.689 L 13.019 37.889 C 27.519 32.989 56.519 23.389 85.719 24.489 C 114.819 25.689 144.219 37.689 173.319 43.689 C 202.519 49.689 231.519 49.689 260.519 48.489 C 289.519 47.389 318.519 44.989 347.519 39.689 C 376.519 34.389 405.519 25.989 434.719 20.189 C 463.819 14.389 493.219 10.989 522.319 12.689 C 551.519 14.389 580.519 20.989 609.519 27.689 C 638.519 34.389 667.519 40.989 696.519 42.889 C 725.519 44.689 754.519 41.689 783.719 36.989 C 812.819 32.389 842.219 25.989 871.319 22.489 C 900.519 18.989 929.519 18.389 944.019 17.989 L 958.519 17.689 L 958.519 0.689 L 944.019 0.689 C 929.519 0.689 900.519 0.689 871.319 0.689 C 842.219 0.689 812.819 0.689 783.719 0.689 C 754.519 0.689 725.519 0.689 696.519 0.689 C 667.519 0.689 638.519 0.689 609.519 0.689 C 580.519 0.689 551.519 0.689 522.319 0.689 C 493.219 0.689 463.819 0.689 434.719 0.689 C 405.519 0.689 376.519 0.689 347.519 0.689 C 318.519 0.689 289.519 0.689 260.519 0.689 C 231.519 0.689 202.519 0.689 173.319 0.689 C 144.219 0.689 114.819 0.689 85.719 0.689 C 56.519 0.689 27.519 0.689 13.019 0.689 L -1.481 0.689 L -1.481 42.689 Z" fill="#7a19b6" transform="matrix(1, 0, 0, 1, -5.684341886080802e-14, 0)"/>
  <path d="M -193.818 -124.848 C -193.818 -124.848 -125.951 99.404 -43.135 82 C 24.735 67.737 170.777 -77.618 251.314 -78.563 C 350.633 -79.728 464.65 40.205 540.081 42.888 C 621.585 44.539 670.187 -115.309 770.116 -115.309 C 869.7 -115.309 939.117 122.728 1016.315 122.728 C 1093.512 122.728 1151.305 -59.738 1151.305 -59.738" fill="none" fill-rule="evenodd" stroke="#e953da" stroke-linecap="round" style="stroke-width: 101px;" transform="matrix(1, 0, 0, 1, -5.684341886080802e-14, 0)"/>
</svg>