<svg id="visual" viewBox="0 0 900 600" width="900" height="600" xmlns="http://www.w3.org/2000/svg"
    xmlns:xlink="http://www.w3.org/1999/xlink" version="1.1">
    <path
        d="M0 140L6.5 143.2C13 146.3 26 152.7 39 152.2C52 151.7 65 144.3 78 143.3C91 142.3 104 147.7 117.2 146.7C130.3 145.7 143.7 138.3 156.8 138.2C170 138 183 145 196 145.3C209 145.7 222 139.3 235 136.8C248 134.3 261 135.7 274 141C287 146.3 300 155.7 313 155.3C326 155 339 145 352 139.3C365 133.7 378 132.3 391 134C404 135.7 417 140.3 430.2 145.5C443.3 150.7 456.7 156.3 469.8 154.7C483 153 496 144 509 141.3C522 138.7 535 142.3 548 146.8C561 151.3 574 156.7 587 157.3C600 158 613 154 626 153.2C639 152.3 652 154.7 665 156.8C678 159 691 161 704 157.2C717 153.3 730 143.7 743.2 141.3C756.3 139 769.7 144 782.8 144.3C796 144.7 809 140.3 822 140.5C835 140.7 848 145.3 861 148C874 150.7 887 151.3 893.5 151.7L900 152L900 0L893.5 0C887 0 874 0 861 0C848 0 835 0 822 0C809 0 796 0 782.8 0C769.7 0 756.3 0 743.2 0C730 0 717 0 704 0C691 0 678 0 665 0C652 0 639 0 626 0C613 0 600 0 587 0C574 0 561 0 548 0C535 0 522 0 509 0C496 0 483 0 469.8 0C456.7 0 443.3 0 430.2 0C417 0 404 0 391 0C378 0 365 0 352 0C339 0 326 0 313 0C300 0 287 0 274 0C261 0 248 0 235 0C222 0 209 0 196 0C183 0 170 0 156.8 0C143.7 0 130.3 0 117.2 0C104 0 91 0 78 0C65 0 52 0 39 0C26 0 13 0 6.5 0L0 0Z"
        fill="#c22fa7"></path>
    <path
        d="M0 133L6.5 132.7C13 132.3 26 131.7 39 127C52 122.3 65 113.7 78 111.2C91 108.7 104 112.3 117.2 117.5C130.3 122.7 143.7 129.3 156.8 130.5C170 131.7 183 127.3 196 125C209 122.7 222 122.3 235 124.2C248 126 261 130 274 128C287 126 300 118 313 113.2C326 108.3 339 106.7 352 109.7C365 112.7 378 120.3 391 124.5C404 128.7 417 129.3 430.2 125.8C443.3 122.3 456.7 114.7 469.8 112.7C483 110.7 496 114.3 509 119.7C522 125 535 132 548 134.2C561 136.3 574 133.7 587 133.3C600 133 613 135 626 136.5C639 138 652 139 665 138.3C678 137.7 691 135.3 704 131.7C717 128 730 123 743.2 118.8C756.3 114.7 769.7 111.3 782.8 111.3C796 111.3 809 114.7 822 116.3C835 118 848 118 861 121.3C874 124.7 887 131.3 893.5 134.7L900 138L900 0L893.5 0C887 0 874 0 861 0C848 0 835 0 822 0C809 0 796 0 782.8 0C769.7 0 756.3 0 743.2 0C730 0 717 0 704 0C691 0 678 0 665 0C652 0 639 0 626 0C613 0 600 0 587 0C574 0 561 0 548 0C535 0 522 0 509 0C496 0 483 0 469.8 0C456.7 0 443.3 0 430.2 0C417 0 404 0 391 0C378 0 365 0 352 0C339 0 326 0 313 0C300 0 287 0 274 0C261 0 248 0 235 0C222 0 209 0 196 0C183 0 170 0 156.8 0C143.7 0 130.3 0 117.2 0C104 0 91 0 78 0C65 0 52 0 39 0C26 0 13 0 6.5 0L0 0Z"
        fill="#ac2c9b"></path>
    <path
        d="M0 114L6.5 108.8C13 103.7 26 93.3 39 90.7C52 88 65 93 78 96.8C91 100.7 104 103.3 117.2 100.7C130.3 98 143.7 90 156.8 88.2C170 86.3 183 90.7 196 90.8C209 91 222 87 235 89.8C248 92.7 261 102.3 274 106C287 109.7 300 107.3 313 105.5C326 103.7 339 102.3 352 102.2C365 102 378 103 391 104.8C404 106.7 417 109.3 430.2 107.8C443.3 106.3 456.7 100.7 469.8 97.8C483 95 496 95 509 97.7C522 100.3 535 105.7 548 107.5C561 109.3 574 107.7 587 106C600 104.3 613 102.7 626 102.3C639 102 652 103 665 100.7C678 98.3 691 92.7 704 91.5C717 90.3 730 93.7 743.2 94.8C756.3 96 769.7 95 782.8 96.2C796 97.3 809 100.7 822 104.2C835 107.7 848 111.3 861 109.3C874 107.3 887 99.7 893.5 95.8L900 92L900 0L893.5 0C887 0 874 0 861 0C848 0 835 0 822 0C809 0 796 0 782.8 0C769.7 0 756.3 0 743.2 0C730 0 717 0 704 0C691 0 678 0 665 0C652 0 639 0 626 0C613 0 600 0 587 0C574 0 561 0 548 0C535 0 522 0 509 0C496 0 483 0 469.8 0C456.7 0 443.3 0 430.2 0C417 0 404 0 391 0C378 0 365 0 352 0C339 0 326 0 313 0C300 0 287 0 274 0C261 0 248 0 235 0C222 0 209 0 196 0C183 0 170 0 156.8 0C143.7 0 130.3 0 117.2 0C104 0 91 0 78 0C65 0 52 0 39 0C26 0 13 0 6.5 0L0 0Z"
        fill="#97298e"></path>
    <path
        d="M0 67L6.5 66.5C13 66 26 65 39 68.2C52 71.3 65 78.7 78 81.7C91 84.7 104 83.3 117.2 84.2C130.3 85 143.7 88 156.8 84.3C170 80.7 183 70.3 196 68C209 65.7 222 71.3 235 73.5C248 75.7 261 74.3 274 75.5C287 76.7 300 80.3 313 79.3C326 78.3 339 72.7 352 71.5C365 70.3 378 73.7 391 73.8C404 74 417 71 430.2 68.8C443.3 66.7 456.7 65.3 469.8 66C483 66.7 496 69.3 509 69.2C522 69 535 66 548 65.3C561 64.7 574 66.3 587 66.5C600 66.7 613 65.3 626 65.2C639 65 652 66 665 68.3C678 70.7 691 74.3 704 74.7C717 75 730 72 743.2 70.5C756.3 69 769.7 69 782.8 70.3C796 71.7 809 74.3 822 77.3C835 80.3 848 83.7 861 83.7C874 83.7 887 80.3 893.5 78.7L900 77L900 0L893.5 0C887 0 874 0 861 0C848 0 835 0 822 0C809 0 796 0 782.8 0C769.7 0 756.3 0 743.2 0C730 0 717 0 704 0C691 0 678 0 665 0C652 0 639 0 626 0C613 0 600 0 587 0C574 0 561 0 548 0C535 0 522 0 509 0C496 0 483 0 469.8 0C456.7 0 443.3 0 430.2 0C417 0 404 0 391 0C378 0 365 0 352 0C339 0 326 0 313 0C300 0 287 0 274 0C261 0 248 0 235 0C222 0 209 0 196 0C183 0 170 0 156.8 0C143.7 0 130.3 0 117.2 0C104 0 91 0 78 0C65 0 52 0 39 0C26 0 13 0 6.5 0L0 0Z"
        fill="#832580"></path>
    <path
        d="M0 53L6.5 51.8C13 50.7 26 48.3 39 46.2C52 44 65 42 78 40.2C91 38.3 104 36.7 117.2 39.5C130.3 42.3 143.7 49.7 156.8 51.2C170 52.7 183 48.3 196 45.2C209 42 222 40 235 41.2C248 42.3 261 46.7 274 47.5C287 48.3 300 45.7 313 43.3C326 41 339 39 352 39.5C365 40 378 43 391 44.8C404 46.7 417 47.3 430.2 49.8C443.3 52.3 456.7 56.7 469.8 58.5C483 60.3 496 59.7 509 60.2C522 60.7 535 62.3 548 60.5C561 58.7 574 53.3 587 53.2C600 53 613 58 626 59.7C639 61.3 652 59.7 665 59C678 58.3 691 58.7 704 59.7C717 60.7 730 62.3 743.2 60.7C756.3 59 769.7 54 782.8 52C796 50 809 51 822 51.3C835 51.7 848 51.3 861 50.5C874 49.7 887 48.3 893.5 47.7L900 47L900 0L893.5 0C887 0 874 0 861 0C848 0 835 0 822 0C809 0 796 0 782.8 0C769.7 0 756.3 0 743.2 0C730 0 717 0 704 0C691 0 678 0 665 0C652 0 639 0 626 0C613 0 600 0 587 0C574 0 561 0 548 0C535 0 522 0 509 0C496 0 483 0 469.8 0C456.7 0 443.3 0 430.2 0C417 0 404 0 391 0C378 0 365 0 352 0C339 0 326 0 313 0C300 0 287 0 274 0C261 0 248 0 235 0C222 0 209 0 196 0C183 0 170 0 156.8 0C143.7 0 130.3 0 117.2 0C104 0 91 0 78 0C65 0 52 0 39 0C26 0 13 0 6.5 0L0 0Z"
        fill="#702172"></path>
    <path
        d="M0 28L6.5 25.2C13 22.3 26 16.7 39 14.3C52 12 65 13 78 17.8C91 22.7 104 31.3 117.2 31.8C130.3 32.3 143.7 24.7 156.8 22.2C170 19.7 183 22.3 196 22.3C209 22.3 222 19.7 235 21.7C248 23.7 261 30.3 274 31.2C287 32 300 27 313 25.2C326 23.3 339 24.7 352 26.5C365 28.3 378 30.7 391 30.8C404 31 417 29 430.2 26.8C443.3 24.7 456.7 22.3 469.8 21C483 19.7 496 19.3 509 19C522 18.7 535 18.3 548 21.2C561 24 574 30 587 31.8C600 33.7 613 31.3 626 27.5C639 23.7 652 18.3 665 19.2C678 20 691 27 704 31.3C717 35.7 730 37.3 743.2 38.2C756.3 39 769.7 39 782.8 36.8C796 34.7 809 30.3 822 28.5C835 26.7 848 27.3 861 25.2C874 23 887 18 893.5 15.5L900 13L900 0L893.5 0C887 0 874 0 861 0C848 0 835 0 822 0C809 0 796 0 782.8 0C769.7 0 756.3 0 743.2 0C730 0 717 0 704 0C691 0 678 0 665 0C652 0 639 0 626 0C613 0 600 0 587 0C574 0 561 0 548 0C535 0 522 0 509 0C496 0 483 0 469.8 0C456.7 0 443.3 0 430.2 0C417 0 404 0 391 0C378 0 365 0 352 0C339 0 326 0 313 0C300 0 287 0 274 0C261 0 248 0 235 0C222 0 209 0 196 0C183 0 170 0 156.8 0C143.7 0 130.3 0 117.2 0C104 0 91 0 78 0C65 0 52 0 39 0C26 0 13 0 6.5 0L0 0Z"
        fill="#5d1c64"></path>
    <path
        d="M0 439L6.5 442.7C13 446.3 26 453.7 39 457.5C52 461.3 65 461.7 78 457.3C91 453 104 444 117.2 440.5C130.3 437 143.7 439 156.8 444.5C170 450 183 459 196 461.2C209 463.3 222 458.7 235 453.5C248 448.3 261 442.7 274 440.2C287 437.7 300 438.3 313 442C326 445.7 339 452.3 352 451.3C365 450.3 378 441.7 391 439.5C404 437.3 417 441.7 430.2 444.2C443.3 446.7 456.7 447.3 469.8 451.3C483 455.3 496 462.7 509 462.8C522 463 535 456 548 451.8C561 447.7 574 446.3 587 448.5C600 450.7 613 456.3 626 459.3C639 462.3 652 462.7 665 461.2C678 459.7 691 456.3 704 451.3C717 446.3 730 439.7 743.2 438.8C756.3 438 769.7 443 782.8 445C796 447 809 446 822 449.7C835 453.3 848 461.7 861 463.8C874 466 887 462 893.5 460L900 458L900 601L893.5 601C887 601 874 601 861 601C848 601 835 601 822 601C809 601 796 601 782.8 601C769.7 601 756.3 601 743.2 601C730 601 717 601 704 601C691 601 678 601 665 601C652 601 639 601 626 601C613 601 600 601 587 601C574 601 561 601 548 601C535 601 522 601 509 601C496 601 483 601 469.8 601C456.7 601 443.3 601 430.2 601C417 601 404 601 391 601C378 601 365 601 352 601C339 601 326 601 313 601C300 601 287 601 274 601C261 601 248 601 235 601C222 601 209 601 196 601C183 601 170 601 156.8 601C143.7 601 130.3 601 117.2 601C104 601 91 601 78 601C65 601 52 601 39 601C26 601 13 601 6.5 601L0 601Z"
        fill="#c22fa7"></path>
    <path
        d="M0 485L6.5 480.3C13 475.7 26 466.3 39 467.3C52 468.3 65 479.7 78 484.2C91 488.7 104 486.3 117.2 481C130.3 475.7 143.7 467.3 156.8 466.5C170 465.7 183 472.3 196 477.2C209 482 222 485 235 483.8C248 482.7 261 477.3 274 472.3C287 467.3 300 462.7 313 464.7C326 466.7 339 475.3 352 477.5C365 479.7 378 475.3 391 475.8C404 476.3 417 481.7 430.2 483.5C443.3 485.3 456.7 483.7 469.8 480.2C483 476.7 496 471.3 509 471.5C522 471.7 535 477.3 548 477.2C561 477 574 471 587 469.7C600 468.3 613 471.7 626 476.2C639 480.7 652 486.3 665 489.3C678 492.3 691 492.7 704 491.5C717 490.3 730 487.7 743.2 487.8C756.3 488 769.7 491 782.8 489.3C796 487.7 809 481.3 822 476.2C835 471 848 467 861 469.8C874 472.7 887 482.3 893.5 487.2L900 492L900 601L893.5 601C887 601 874 601 861 601C848 601 835 601 822 601C809 601 796 601 782.8 601C769.7 601 756.3 601 743.2 601C730 601 717 601 704 601C691 601 678 601 665 601C652 601 639 601 626 601C613 601 600 601 587 601C574 601 561 601 548 601C535 601 522 601 509 601C496 601 483 601 469.8 601C456.7 601 443.3 601 430.2 601C417 601 404 601 391 601C378 601 365 601 352 601C339 601 326 601 313 601C300 601 287 601 274 601C261 601 248 601 235 601C222 601 209 601 196 601C183 601 170 601 156.8 601C143.7 601 130.3 601 117.2 601C104 601 91 601 78 601C65 601 52 601 39 601C26 601 13 601 6.5 601L0 601Z"
        fill="#a930a3"></path>
    <path
        d="M0 484L6.5 483.8C13 483.7 26 483.3 39 484.5C52 485.7 65 488.3 78 491.5C91 494.7 104 498.3 117.2 500.3C130.3 502.3 143.7 502.7 156.8 499.7C170 496.7 183 490.3 196 487C209 483.7 222 483.3 235 486.7C248 490 261 497 274 498.7C287 500.3 300 496.7 313 495.3C326 494 339 495 352 494C365 493 378 490 391 491.7C404 493.3 417 499.7 430.2 504.7C443.3 509.7 456.7 513.3 469.8 515.2C483 517 496 517 509 513.5C522 510 535 503 548 497.7C561 492.3 574 488.7 587 489.2C600 489.7 613 494.3 626 495.7C639 497 652 495 665 497C678 499 691 505 704 506.8C717 508.7 730 506.3 743.2 505.3C756.3 504.3 769.7 504.7 782.8 505.2C796 505.7 809 506.3 822 507.8C835 509.3 848 511.7 861 510.5C874 509.3 887 504.7 893.5 502.3L900 500L900 601L893.5 601C887 601 874 601 861 601C848 601 835 601 822 601C809 601 796 601 782.8 601C769.7 601 756.3 601 743.2 601C730 601 717 601 704 601C691 601 678 601 665 601C652 601 639 601 626 601C613 601 600 601 587 601C574 601 561 601 548 601C535 601 522 601 509 601C496 601 483 601 469.8 601C456.7 601 443.3 601 430.2 601C417 601 404 601 391 601C378 601 365 601 352 601C339 601 326 601 313 601C300 601 287 601 274 601C261 601 248 601 235 601C222 601 209 601 196 601C183 601 170 601 156.8 601C143.7 601 130.3 601 117.2 601C104 601 91 601 78 601C65 601 52 601 39 601C26 601 13 601 6.5 601L0 601Z"
        fill="#90319e"></path>
    <path
        d="M0 535L6.5 532.5C13 530 26 525 39 524.8C52 524.7 65 529.3 78 528.5C91 527.7 104 521.3 117.2 520.2C130.3 519 143.7 523 156.8 524C170 525 183 523 196 521C209 519 222 517 235 520.2C248 523.3 261 531.7 274 534.5C287 537.3 300 534.7 313 532.7C326 530.7 339 529.3 352 528.5C365 527.7 378 527.3 391 528.5C404 529.7 417 532.3 430.2 529.8C443.3 527.3 456.7 519.7 469.8 515.5C483 511.3 496 510.7 509 511C522 511.3 535 512.7 548 513.5C561 514.3 574 514.7 587 518C600 521.3 613 527.7 626 532C639 536.3 652 538.7 665 538.2C678 537.7 691 534.3 704 531.8C717 529.3 730 527.7 743.2 526.3C756.3 525 769.7 524 782.8 525.8C796 527.7 809 532.3 822 535.3C835 538.3 848 539.7 861 538.2C874 536.7 887 532.3 893.5 530.2L900 528L900 601L893.5 601C887 601 874 601 861 601C848 601 835 601 822 601C809 601 796 601 782.8 601C769.7 601 756.3 601 743.2 601C730 601 717 601 704 601C691 601 678 601 665 601C652 601 639 601 626 601C613 601 600 601 587 601C574 601 561 601 548 601C535 601 522 601 509 601C496 601 483 601 469.8 601C456.7 601 443.3 601 430.2 601C417 601 404 601 391 601C378 601 365 601 352 601C339 601 326 601 313 601C300 601 287 601 274 601C261 601 248 601 235 601C222 601 209 601 196 601C183 601 170 601 156.8 601C143.7 601 130.3 601 117.2 601C104 601 91 601 78 601C65 601 52 601 39 601C26 601 13 601 6.5 601L0 601Z"
        fill="#783197"></path>
    <path
        d="M0 553L6.5 551.5C13 550 26 547 39 548.2C52 549.3 65 554.7 78 556.8C91 559 104 558 117.2 557.7C130.3 557.3 143.7 557.7 156.8 556.7C170 555.7 183 553.3 196 554.5C209 555.7 222 560.3 235 559.5C248 558.7 261 552.3 274 549C287 545.7 300 545.3 313 546.5C326 547.7 339 550.3 352 553.5C365 556.7 378 560.3 391 558.7C404 557 417 550 430.2 550.2C443.3 550.3 456.7 557.7 469.8 558C483 558.3 496 551.7 509 549.5C522 547.3 535 549.7 548 549.5C561 549.3 574 546.7 587 545.7C600 544.7 613 545.3 626 546.5C639 547.7 652 549.3 665 550.5C678 551.7 691 552.3 704 551.7C717 551 730 549 743.2 548C756.3 547 769.7 547 782.8 549.8C796 552.7 809 558.3 822 559.8C835 561.3 848 558.7 861 553.7C874 548.7 887 541.3 893.5 537.7L900 534L900 601L893.5 601C887 601 874 601 861 601C848 601 835 601 822 601C809 601 796 601 782.8 601C769.7 601 756.3 601 743.2 601C730 601 717 601 704 601C691 601 678 601 665 601C652 601 639 601 626 601C613 601 600 601 587 601C574 601 561 601 548 601C535 601 522 601 509 601C496 601 483 601 469.8 601C456.7 601 443.3 601 430.2 601C417 601 404 601 391 601C378 601 365 601 352 601C339 601 326 601 313 601C300 601 287 601 274 601C261 601 248 601 235 601C222 601 209 601 196 601C183 601 170 601 156.8 601C143.7 601 130.3 601 117.2 601C104 601 91 601 78 601C65 601 52 601 39 601C26 601 13 601 6.5 601L0 601Z"
        fill="#5f2f8f"></path>
    <path
        d="M0 569L6.5 569.8C13 570.7 26 572.3 39 572.2C52 572 65 570 78 570.2C91 570.3 104 572.7 117.2 574.7C130.3 576.7 143.7 578.3 156.8 578.5C170 578.7 183 577.3 196 575.5C209 573.7 222 571.3 235 570.2C248 569 261 569 274 570.7C287 572.3 300 575.7 313 578.5C326 581.3 339 583.7 352 581.2C365 578.7 378 571.3 391 567.3C404 563.3 417 562.7 430.2 566.7C443.3 570.7 456.7 579.3 469.8 582.2C483 585 496 582 509 579.2C522 576.3 535 573.7 548 574C561 574.3 574 577.7 587 576.8C600 576 613 571 626 572C639 573 652 580 665 581.5C678 583 691 579 704 577.8C717 576.7 730 578.3 743.2 577.5C756.3 576.7 769.7 573.3 782.8 573.2C796 573 809 576 822 576.5C835 577 848 575 861 575.3C874 575.7 887 578.3 893.5 579.7L900 581L900 601L893.5 601C887 601 874 601 861 601C848 601 835 601 822 601C809 601 796 601 782.8 601C769.7 601 756.3 601 743.2 601C730 601 717 601 704 601C691 601 678 601 665 601C652 601 639 601 626 601C613 601 600 601 587 601C574 601 561 601 548 601C535 601 522 601 509 601C496 601 483 601 469.8 601C456.7 601 443.3 601 430.2 601C417 601 404 601 391 601C378 601 365 601 352 601C339 601 326 601 313 601C300 601 287 601 274 601C261 601 248 601 235 601C222 601 209 601 196 601C183 601 170 601 156.8 601C143.7 601 130.3 601 117.2 601C104 601 91 601 78 601C65 601 52 601 39 601C26 601 13 601 6.5 601L0 601Z"
        fill="#472d85"></path>
</svg>