<svg id="visual" viewBox="0 0 900 600" width="900" height="600" xmlns="http://www.w3.org/2000/svg"
    xmlns:xlink="http://www.w3.org/1999/xlink" version="1.1">
    <path
        d="M0 439L6.5 442.7C13 446.3 26 453.7 39 457.5C52 461.3 65 461.7 78 457.3C91 453 104 444 117.2 440.5C130.3 437 143.7 439 156.8 444.5C170 450 183 459 196 461.2C209 463.3 222 458.7 235 453.5C248 448.3 261 442.7 274 440.2C287 437.7 300 438.3 313 442C326 445.7 339 452.3 352 451.3C365 450.3 378 441.7 391 439.5C404 437.3 417 441.7 430.2 444.2C443.3 446.7 456.7 447.3 469.8 451.3C483 455.3 496 462.7 509 462.8C522 463 535 456 548 451.8C561 447.7 574 446.3 587 448.5C600 450.7 613 456.3 626 459.3C639 462.3 652 462.7 665 461.2C678 459.7 691 456.3 704 451.3C717 446.3 730 439.7 743.2 438.8C756.3 438 769.7 443 782.8 445C796 447 809 446 822 449.7C835 453.3 848 461.7 861 463.8C874 466 887 462 893.5 460L900 458L900 601L893.5 601C887 601 874 601 861 601C848 601 835 601 822 601C809 601 796 601 782.8 601C769.7 601 756.3 601 743.2 601C730 601 717 601 704 601C691 601 678 601 665 601C652 601 639 601 626 601C613 601 600 601 587 601C574 601 561 601 548 601C535 601 522 601 509 601C496 601 483 601 469.8 601C456.7 601 443.3 601 430.2 601C417 601 404 601 391 601C378 601 365 601 352 601C339 601 326 601 313 601C300 601 287 601 274 601C261 601 248 601 235 601C222 601 209 601 196 601C183 601 170 601 156.8 601C143.7 601 130.3 601 117.2 601C104 601 91 601 78 601C65 601 52 601 39 601C26 601 13 601 6.5 601L0 601Z"
        fill="#c22fa7"></path>
    <path
        d="M0 485L6.5 480.3C13 475.7 26 466.3 39 467.3C52 468.3 65 479.7 78 484.2C91 488.7 104 486.3 117.2 481C130.3 475.7 143.7 467.3 156.8 466.5C170 465.7 183 472.3 196 477.2C209 482 222 485 235 483.8C248 482.7 261 477.3 274 472.3C287 467.3 300 462.7 313 464.7C326 466.7 339 475.3 352 477.5C365 479.7 378 475.3 391 475.8C404 476.3 417 481.7 430.2 483.5C443.3 485.3 456.7 483.7 469.8 480.2C483 476.7 496 471.3 509 471.5C522 471.7 535 477.3 548 477.2C561 477 574 471 587 469.7C600 468.3 613 471.7 626 476.2C639 480.7 652 486.3 665 489.3C678 492.3 691 492.7 704 491.5C717 490.3 730 487.7 743.2 487.8C756.3 488 769.7 491 782.8 489.3C796 487.7 809 481.3 822 476.2C835 471 848 467 861 469.8C874 472.7 887 482.3 893.5 487.2L900 492L900 601L893.5 601C887 601 874 601 861 601C848 601 835 601 822 601C809 601 796 601 782.8 601C769.7 601 756.3 601 743.2 601C730 601 717 601 704 601C691 601 678 601 665 601C652 601 639 601 626 601C613 601 600 601 587 601C574 601 561 601 548 601C535 601 522 601 509 601C496 601 483 601 469.8 601C456.7 601 443.3 601 430.2 601C417 601 404 601 391 601C378 601 365 601 352 601C339 601 326 601 313 601C300 601 287 601 274 601C261 601 248 601 235 601C222 601 209 601 196 601C183 601 170 601 156.8 601C143.7 601 130.3 601 117.2 601C104 601 91 601 78 601C65 601 52 601 39 601C26 601 13 601 6.5 601L0 601Z"
        fill="#a930a3"></path>
    <path
        d="M0 484L6.5 483.8C13 483.7 26 483.3 39 484.5C52 485.7 65 488.3 78 491.5C91 494.7 104 498.3 117.2 500.3C130.3 502.3 143.7 502.7 156.8 499.7C170 496.7 183 490.3 196 487C209 483.7 222 483.3 235 486.7C248 490 261 497 274 498.7C287 500.3 300 496.7 313 495.3C326 494 339 495 352 494C365 493 378 490 391 491.7C404 493.3 417 499.7 430.2 504.7C443.3 509.7 456.7 513.3 469.8 515.2C483 517 496 517 509 513.5C522 510 535 503 548 497.7C561 492.3 574 488.7 587 489.2C600 489.7 613 494.3 626 495.7C639 497 652 495 665 497C678 499 691 505 704 506.8C717 508.7 730 506.3 743.2 505.3C756.3 504.3 769.7 504.7 782.8 505.2C796 505.7 809 506.3 822 507.8C835 509.3 848 511.7 861 510.5C874 509.3 887 504.7 893.5 502.3L900 500L900 601L893.5 601C887 601 874 601 861 601C848 601 835 601 822 601C809 601 796 601 782.8 601C769.7 601 756.3 601 743.2 601C730 601 717 601 704 601C691 601 678 601 665 601C652 601 639 601 626 601C613 601 600 601 587 601C574 601 561 601 548 601C535 601 522 601 509 601C496 601 483 601 469.8 601C456.7 601 443.3 601 430.2 601C417 601 404 601 391 601C378 601 365 601 352 601C339 601 326 601 313 601C300 601 287 601 274 601C261 601 248 601 235 601C222 601 209 601 196 601C183 601 170 601 156.8 601C143.7 601 130.3 601 117.2 601C104 601 91 601 78 601C65 601 52 601 39 601C26 601 13 601 6.5 601L0 601Z"
        fill="#90319e"></path>
    <path
        d="M0 535L6.5 532.5C13 530 26 525 39 524.8C52 524.7 65 529.3 78 528.5C91 527.7 104 521.3 117.2 520.2C130.3 519 143.7 523 156.8 524C170 525 183 523 196 521C209 519 222 517 235 520.2C248 523.3 261 531.7 274 534.5C287 537.3 300 534.7 313 532.7C326 530.7 339 529.3 352 528.5C365 527.7 378 527.3 391 528.5C404 529.7 417 532.3 430.2 529.8C443.3 527.3 456.7 519.7 469.8 515.5C483 511.3 496 510.7 509 511C522 511.3 535 512.7 548 513.5C561 514.3 574 514.7 587 518C600 521.3 613 527.7 626 532C639 536.3 652 538.7 665 538.2C678 537.7 691 534.3 704 531.8C717 529.3 730 527.7 743.2 526.3C756.3 525 769.7 524 782.8 525.8C796 527.7 809 532.3 822 535.3C835 538.3 848 539.7 861 538.2C874 536.7 887 532.3 893.5 530.2L900 528L900 601L893.5 601C887 601 874 601 861 601C848 601 835 601 822 601C809 601 796 601 782.8 601C769.7 601 756.3 601 743.2 601C730 601 717 601 704 601C691 601 678 601 665 601C652 601 639 601 626 601C613 601 600 601 587 601C574 601 561 601 548 601C535 601 522 601 509 601C496 601 483 601 469.8 601C456.7 601 443.3 601 430.2 601C417 601 404 601 391 601C378 601 365 601 352 601C339 601 326 601 313 601C300 601 287 601 274 601C261 601 248 601 235 601C222 601 209 601 196 601C183 601 170 601 156.8 601C143.7 601 130.3 601 117.2 601C104 601 91 601 78 601C65 601 52 601 39 601C26 601 13 601 6.5 601L0 601Z"
        fill="#783197"></path>
    <path
        d="M0 553L6.5 551.5C13 550 26 547 39 548.2C52 549.3 65 554.7 78 556.8C91 559 104 558 117.2 557.7C130.3 557.3 143.7 557.7 156.8 556.7C170 555.7 183 553.3 196 554.5C209 555.7 222 560.3 235 559.5C248 558.7 261 552.3 274 549C287 545.7 300 545.3 313 546.5C326 547.7 339 550.3 352 553.5C365 556.7 378 560.3 391 558.7C404 557 417 550 430.2 550.2C443.3 550.3 456.7 557.7 469.8 558C483 558.3 496 551.7 509 549.5C522 547.3 535 549.7 548 549.5C561 549.3 574 546.7 587 545.7C600 544.7 613 545.3 626 546.5C639 547.7 652 549.3 665 550.5C678 551.7 691 552.3 704 551.7C717 551 730 549 743.2 548C756.3 547 769.7 547 782.8 549.8C796 552.7 809 558.3 822 559.8C835 561.3 848 558.7 861 553.7C874 548.7 887 541.3 893.5 537.7L900 534L900 601L893.5 601C887 601 874 601 861 601C848 601 835 601 822 601C809 601 796 601 782.8 601C769.7 601 756.3 601 743.2 601C730 601 717 601 704 601C691 601 678 601 665 601C652 601 639 601 626 601C613 601 600 601 587 601C574 601 561 601 548 601C535 601 522 601 509 601C496 601 483 601 469.8 601C456.7 601 443.3 601 430.2 601C417 601 404 601 391 601C378 601 365 601 352 601C339 601 326 601 313 601C300 601 287 601 274 601C261 601 248 601 235 601C222 601 209 601 196 601C183 601 170 601 156.8 601C143.7 601 130.3 601 117.2 601C104 601 91 601 78 601C65 601 52 601 39 601C26 601 13 601 6.5 601L0 601Z"
        fill="#5f2f8f"></path>
    <path
        d="M0 569L6.5 569.8C13 570.7 26 572.3 39 572.2C52 572 65 570 78 570.2C91 570.3 104 572.7 117.2 574.7C130.3 576.7 143.7 578.3 156.8 578.5C170 578.7 183 577.3 196 575.5C209 573.7 222 571.3 235 570.2C248 569 261 569 274 570.7C287 572.3 300 575.7 313 578.5C326 581.3 339 583.7 352 581.2C365 578.7 378 571.3 391 567.3C404 563.3 417 562.7 430.2 566.7C443.3 570.7 456.7 579.3 469.8 582.2C483 585 496 582 509 579.2C522 576.3 535 573.7 548 574C561 574.3 574 577.7 587 576.8C600 576 613 571 626 572C639 573 652 580 665 581.5C678 583 691 579 704 577.8C717 576.7 730 578.3 743.2 577.5C756.3 576.7 769.7 573.3 782.8 573.2C796 573 809 576 822 576.5C835 577 848 575 861 575.3C874 575.7 887 578.3 893.5 579.7L900 581L900 601L893.5 601C887 601 874 601 861 601C848 601 835 601 822 601C809 601 796 601 782.8 601C769.7 601 756.3 601 743.2 601C730 601 717 601 704 601C691 601 678 601 665 601C652 601 639 601 626 601C613 601 600 601 587 601C574 601 561 601 548 601C535 601 522 601 509 601C496 601 483 601 469.8 601C456.7 601 443.3 601 430.2 601C417 601 404 601 391 601C378 601 365 601 352 601C339 601 326 601 313 601C300 601 287 601 274 601C261 601 248 601 235 601C222 601 209 601 196 601C183 601 170 601 156.8 601C143.7 601 130.3 601 117.2 601C104 601 91 601 78 601C65 601 52 601 39 601C26 601 13 601 6.5 601L0 601Z"
        fill="#472d85"></path>
</svg>