<svg id="visual" viewBox="0 0 900 600" width="900" height="600" xmlns="http://www.w3.org/2000/svg"
    xmlns:xlink="http://www.w3.org/1999/xlink" version="1.1">
    <path
        d="M0 461L75 476.7C150 492.3 300 523.7 450 541.7C600 559.7 750 564.3 825 566.7L900 569L900 601L825 601C750 601 600 601 450 601C300 601 150 601 75 601L0 601Z"
        fill="#c22fa7"></path>
    <path
        d="M0 551L75 553.8C150 556.7 300 562.3 450 542.7C600 523 750 478 825 455.5L900 433L900 601L825 601C750 601 600 601 450 601C300 601 150 601 75 601L0 601Z"
        fill="#9931a0"></path>
    <path
        d="M0 582L75 582C150 582 300 582 450 565.2C600 548.3 750 514.7 825 497.8L900 481L900 601L825 601C750 601 600 601 450 601C300 601 150 601 75 601L0 601Z"
        fill="#703095"></path>
    <path
        d="M0 564L75 568.2C150 572.3 300 580.7 450 583.7C600 586.7 750 584.3 825 583.2L900 582L900 601L825 601C750 601 600 601 450 601C300 601 150 601 75 601L0 601Z"
        fill="#472d85"></path>
    <path
        d="M0 160L75 147.2C150 134.3 300 108.7 450 113.5C600 118.3 750 153.7 825 171.3L900 189L900 0L825 0C750 0 600 0 450 0C300 0 150 0 75 0L0 0Z"
        fill="#c22fa7"></path>
    <path
        d="M0 64L75 75.2C150 86.3 300 108.7 450 100.7C600 92.7 750 54.3 825 35.2L900 16L900 0L825 0C750 0 600 0 450 0C300 0 150 0 75 0L0 0Z"
        fill="#9e2a92"></path>
    <path
        d="M0 92L75 100C150 108 300 124 450 123.2C600 122.3 750 104.7 825 95.8L900 87L900 0L825 0C750 0 600 0 450 0C300 0 150 0 75 0L0 0Z"
        fill="#7c247c"></path>
    <path
        d="M0 88L75 74C150 60 300 32 450 19.5C600 7 750 10 825 11.5L900 13L900 0L825 0C750 0 600 0 450 0C300 0 150 0 75 0L0 0Z"
        fill="#5d1c64"></path>
</svg>