<svg id="visual" viewBox="0 0 900 600" width="900" height="600" xmlns="http://www.w3.org/2000/svg"
    xmlns:xlink="http://www.w3.org/1999/xlink" version="1.1">
    <path
        d="M0 160L75 147.2C150 134.3 300 108.7 450 113.5C600 118.3 750 153.7 825 171.3L900 189L900 0L825 0C750 0 600 0 450 0C300 0 150 0 75 0L0 0Z"
        fill="#c22fa7"></path>
    <path
        d="M0 64L75 75.2C150 86.3 300 108.7 450 100.7C600 92.7 750 54.3 825 35.2L900 16L900 0L825 0C750 0 600 0 450 0C300 0 150 0 75 0L0 0Z"
        fill="#9e2a92"></path>
    <path
        d="M0 92L75 100C150 108 300 124 450 123.2C600 122.3 750 104.7 825 95.8L900 87L900 0L825 0C750 0 600 0 450 0C300 0 150 0 75 0L0 0Z"
        fill="#7c247c"></path>
    <path
        d="M0 88L75 74C150 60 300 32 450 19.5C600 7 750 10 825 11.5L900 13L900 0L825 0C750 0 600 0 450 0C300 0 150 0 75 0L0 0Z"
        fill="#5d1c64"></path>
</svg>